<svg width="16" height="16" viewBox="0 0 16 16" fill="none" xmlns="http://www.w3.org/2000/svg">
<path d="M2.16311 4.05137C2.58138 3.75903 3.21189 3.81509 3.58744 4.12523L3.15672 3.49917C2.81009 3.00481 2.93424 2.46997 3.42904 2.1229C3.92384 1.77716 5.32592 2.70669 5.32592 2.70669C4.97617 2.20744 5.04158 1.5747 5.54083 1.22451C6.04008 0.875663 6.72889 0.996248 7.07863 1.49639L11.7151 8.04625L11.1242 13.7752L6.19271 11.9766L1.89124 5.59895C1.53838 5.09659 1.66031 4.40378 2.16311 4.05137Z" fill="#EF9645"/>
<path d="M1.19872 7.6952C1.19872 7.6952 0.69502 6.96101 1.42966 6.45775C2.1634 5.9545 2.66665 6.68824 2.66665 6.68824L5.00316 10.0958C5.0837 9.9614 5.1718 9.8288 5.27014 9.69798L2.02724 4.96935C2.02724 4.96935 1.52399 4.2356 2.25818 3.73235C2.99192 3.2291 3.49518 3.96284 3.49518 3.96284L6.5454 8.41114C6.65887 8.31859 6.775 8.22559 6.8947 8.13438L3.35857 2.9768C3.35857 2.9768 2.85532 2.24306 3.58951 1.7398C4.32325 1.23655 4.82651 1.97029 4.82651 1.97029L8.36263 7.12698C8.49256 7.04733 8.62116 6.97836 8.7502 6.90539L5.44501 2.08554C5.44501 2.08554 4.94175 1.35179 5.6755 0.84854C6.40924 0.345286 6.9125 1.07903 6.9125 1.07903L10.4072 6.17565L10.9385 6.95077C8.73685 8.46098 8.52727 11.3021 9.78518 13.1367C10.0366 13.5038 10.4037 13.2523 10.4037 13.2523C8.89392 11.0502 9.3549 8.57578 11.557 7.06602L10.9078 3.81689C10.9078 3.81689 10.6653 2.96078 11.521 2.71783C12.3771 2.47533 12.62 3.33144 12.62 3.33144L13.3698 5.55804C13.667 6.44084 13.9834 7.32054 14.4021 8.15262C15.5844 10.502 14.8782 13.4219 12.649 14.9512C10.2172 16.6185 6.89292 15.9987 5.2252 13.5674L1.19872 7.6952Z" fill="#FFDC5D"/>
<path d="M5.33942 14.2388C3.55956 14.2388 1.76102 12.4403 1.76102 10.6604C1.76102 10.4144 1.58081 10.2155 1.33475 10.2155C1.08868 10.2155 0.871094 10.4144 0.871094 10.6604C0.871094 13.3302 2.66964 15.1287 5.33942 15.1287C5.58548 15.1287 5.78438 14.9112 5.78438 14.6651C5.78438 14.419 5.58548 14.2388 5.33942 14.2388Z" fill="#5DADEC"/>
<path d="M3.11475 15.1101C1.77985 15.1101 0.889927 14.2201 0.889927 12.8852C0.889927 12.6392 0.691029 12.4403 0.444964 12.4403C0.198899 12.4403 0 12.6392 0 12.8852C0 14.6651 1.33489 16 3.11475 16C3.36081 16 3.55971 15.8011 3.55971 15.555C3.55971 15.309 3.36081 15.1101 3.11475 15.1101ZM10.6791 0.871216C10.4335 0.871216 10.2342 1.07056 10.2342 1.31618C10.2342 1.5618 10.4335 1.76114 10.6791 1.76114C12.459 1.76114 14.2388 3.35812 14.2388 5.32085C14.2388 5.56647 14.4382 5.76582 14.6838 5.76582C14.9294 5.76582 15.1288 5.56647 15.1288 5.32085C15.1288 2.86732 13.3489 0.871216 10.6791 0.871216Z" fill="#5DADEC"/>
<path d="M12.903 0C12.6574 0 12.458 0.180655 12.458 0.426275C12.458 0.671895 12.6574 0.889927 12.903 0.889927C14.2379 0.889927 15.1091 1.87997 15.1091 3.09606C15.1091 3.34168 15.3267 3.54102 15.5728 3.54102C15.8188 3.54102 15.999 3.34168 15.999 3.09606C15.999 1.38873 14.6828 0 12.903 0Z" fill="#5DADEC"/>
</svg>
