<svg width="16" height="16" viewBox="0 0 16 16" fill="none" xmlns="http://www.w3.org/2000/svg">
<path d="M9.66645 8C9.66645 7.11066 11.1091 6.50266 11.8887 5.33333C12.7776 4 12.7776 0.888885 12.7776 0.888885H3.88867C3.88867 0.888885 3.88867 4 4.77756 5.33333C5.55712 6.50266 6.99978 7.11066 6.99978 8C6.99978 8.88933 5.55712 9.49733 4.77756 10.6667C3.88867 12 3.88867 15.1111 3.88867 15.1111H12.7776C12.7776 15.1111 12.7776 12 11.8887 10.6667C11.1091 9.49733 9.66645 8.88933 9.66645 8Z" fill="#FFE8B6"/>
<path d="M8.3329 0.888885H4.77734C4.77734 0.888885 4.77734 2.66666 5.22179 4C5.80134 5.73866 7.88845 6.22177 7.88845 8C7.88845 9.77822 7.88845 13.7778 8.3329 13.7778C8.77734 13.7778 8.77734 9.77777 8.77734 8C8.77734 6.22222 10.8649 5.73866 11.444 4C11.8885 2.66666 11.8885 0.888885 11.8885 0.888885H8.3329Z" fill="#FFAC33"/>
<path d="M13.6667 15.1111C13.6667 15.6018 13.2684 16 12.7778 16H3.88889C3.39822 16 3 15.6018 3 15.1111C3 14.6204 3.39822 14.2222 3.88889 14.2222H12.7778C13.2684 14.2222 13.6667 14.6204 13.6667 15.1111ZM13.6667 0.888889C13.6667 1.37956 13.2684 1.77778 12.7778 1.77778H3.88889C3.39822 1.77778 3 1.37956 3 0.888889C3 0.398222 3.39822 0 3.88889 0H12.7778C13.2684 0 13.6667 0.398222 13.6667 0.888889Z" fill="#3B88C3"/>
</svg>
