<svg width="98" height="110" viewBox="0 0 98 110" fill="none" xmlns="http://www.w3.org/2000/svg">
<rect y="13.2155" width="96.7845" height="96.7845" rx="32" fill="white"/>
<mask id="mask0" mask-type="alpha" maskUnits="userSpaceOnUse" x="0" y="0" width="98" height="110">
<rect width="97.1277" height="110" rx="32" fill="white"/>
</mask>
<g mask="url(#mask0)">
<path d="M63.2438 77.5802L59.5548 173.873L44.5924 174.187L47.078 90.7496L30.249 174.826H16.0234L34.3506 77.7718L63.2438 77.5802Z" fill="#263238"/>
<path d="M50.528 81.0825C50.5126 81.6151 50.4551 82.1456 50.356 82.6691C50.2136 83.6516 50.0073 84.9877 49.7568 86.4711C49.6619 87.1759 49.5191 87.8734 49.3294 88.5588C49.1608 89.1391 48.8178 89.6536 48.347 90.0324C48.0343 90.2883 47.66 90.4577 47.2614 90.5236C47.118 90.5607 46.9676 90.5607 46.8242 90.5236C47.3624 90.4544 47.8671 90.224 48.272 89.8629C48.677 89.5017 48.9634 89.0266 49.0936 88.4998C49.2646 87.8218 49.3975 87.1346 49.4915 86.4416C49.742 84.968 49.9827 83.6172 50.1645 82.6544C50.2414 82.1212 50.363 81.5954 50.528 81.0825Z" fill="#455A64"/>
<path d="M47.4127 81.5442C47.4471 81.5688 47.3243 81.7211 47.4127 81.9765C47.4293 82.0445 47.4603 82.1081 47.5035 82.1632C47.5467 82.2183 47.6012 82.2635 47.6633 82.2958C47.738 82.3279 47.8207 82.3366 47.9005 82.3209C47.9803 82.3051 48.0534 82.2655 48.1103 82.2074C48.1733 82.1578 48.2206 82.0911 48.2468 82.0154C48.2729 81.9396 48.2767 81.8579 48.2576 81.78C48.233 81.7137 48.1944 81.6535 48.1444 81.6034C48.0944 81.5534 48.0341 81.5148 47.9678 81.4902C47.7271 81.387 47.5552 81.4902 47.5355 81.4509C47.5159 81.4116 47.6731 81.2348 48.0268 81.3134C48.1277 81.3368 48.2217 81.3837 48.301 81.4502C48.3804 81.5168 48.443 81.6012 48.4836 81.6965C48.5224 81.8218 48.5241 81.9557 48.4883 82.082C48.4526 82.2082 48.3809 82.3214 48.2821 82.4077C48.1833 82.4941 48.0616 82.5499 47.9316 82.5684C47.8017 82.5869 47.6693 82.5672 47.5503 82.5119C47.4632 82.4597 47.3892 82.3883 47.3339 82.3032C47.2786 82.2181 47.2434 82.1215 47.231 82.0207C47.177 81.6523 47.4029 81.5098 47.4127 81.5442Z" fill="#455A64"/>
<path d="M39.3744 82.9148C39.1958 82.4809 39.1282 82.0092 39.178 81.5426C39.2278 81.076 39.3932 80.6291 39.6593 80.2426C39.733 80.277 39.5168 80.8419 39.4432 81.5738C39.3695 82.3057 39.453 82.9001 39.3744 82.9148Z" fill="#455A64"/>
<path d="M41.1794 82.8018C40.9596 82.3649 40.8839 81.8696 40.9632 81.3871C40.9527 80.8989 41.0953 80.4196 41.3709 80.0166C41.3482 80.4824 41.299 80.9465 41.2236 81.4067C41.2344 81.8722 41.2197 82.3379 41.1794 82.8018Z" fill="#455A64"/>
<path d="M56.6427 83.1948C56.6298 82.7119 56.6577 82.2288 56.7262 81.7506C56.7094 81.2666 56.7308 80.7821 56.7901 80.3015C56.9933 80.7644 57.063 81.2748 56.9915 81.7752C57.0025 82.2708 56.8822 82.7606 56.6427 83.1948Z" fill="#455A64"/>
<path d="M58.5974 83.0867C58.5237 83.0573 58.7546 82.4285 58.8086 81.6131C58.8626 80.7977 58.7251 80.1395 58.8086 80.1395C59.0643 80.5962 59.161 81.1249 59.0837 81.6426C59.0837 82.1642 58.9129 82.6714 58.5974 83.0867Z" fill="#455A64"/>
<path d="M42.3965 37.5167L51.6314 36.7799C51.6903 35.6993 51.6314 31.5288 51.6314 31.5288C51.6314 31.5288 55.4776 30.9296 55.5218 27.1079C55.566 23.2863 54.9029 14.4395 54.9029 14.4395C52.7182 13.5006 50.3223 13.1621 47.963 13.4592C45.6038 13.7563 43.3666 14.6781 41.4829 16.1293L40.9131 16.5665L42.3965 37.5167Z" fill="#B78876"/>
<path d="M51.6217 31.4699C49.8475 31.5062 48.1028 31.0119 46.6113 30.0503C46.6113 30.0503 47.7952 32.8158 51.6266 32.4671L51.6217 31.4699Z" fill="#7C5142"/>
<path d="M41.3708 20.5258C41.3069 20.4963 38.728 19.7447 38.8116 22.3727C38.8951 25.0007 41.5181 24.372 41.5181 24.2983C41.5181 24.2246 41.3708 20.5258 41.3708 20.5258Z" fill="#B78876"/>
<path d="M40.688 23.3306C40.688 23.3306 40.6389 23.36 40.5652 23.3993C40.4549 23.4436 40.3317 23.4436 40.2214 23.3993C40.0515 23.2978 39.911 23.1539 39.8137 22.9816C39.7164 22.8094 39.6656 22.6148 39.6663 22.4169C39.6529 22.1922 39.6898 21.9673 39.7744 21.7587C39.7956 21.6752 39.8373 21.5983 39.8956 21.5348C39.9539 21.4714 40.027 21.4234 40.1084 21.3952C40.1601 21.3803 40.2154 21.3839 40.2648 21.4054C40.3141 21.4269 40.3543 21.465 40.3786 21.5131C40.4179 21.5867 40.4031 21.6408 40.4179 21.6408C40.4326 21.6408 40.4719 21.5966 40.4473 21.4885C40.4315 21.4235 40.3932 21.3661 40.3393 21.3264C40.2644 21.2757 40.1734 21.2547 40.0838 21.2675C39.9772 21.2937 39.8787 21.346 39.7972 21.4198C39.7158 21.4935 39.6539 21.5863 39.6172 21.6899C39.5141 21.9212 39.4686 22.174 39.4846 22.4267C39.4786 22.6611 39.5421 22.8921 39.6671 23.0905C39.7921 23.2889 39.973 23.4459 40.187 23.5418C40.2584 23.5601 40.333 23.5621 40.4053 23.5476C40.4776 23.5332 40.5457 23.5026 40.6045 23.4583C40.6831 23.4042 40.693 23.3306 40.688 23.3306Z" fill="#7C5142"/>
<path d="M53.6247 20.3342C53.6261 20.4776 53.5714 20.6159 53.4723 20.7196C53.3732 20.8233 53.2375 20.8842 53.0942 20.8893C53.0248 20.8946 52.955 20.8861 52.8888 20.8642C52.8227 20.8423 52.7616 20.8075 52.709 20.7618C52.6564 20.7161 52.6135 20.6604 52.5826 20.598C52.5518 20.5355 52.5337 20.4676 52.5293 20.3981C52.528 20.2546 52.5826 20.1164 52.6817 20.0127C52.7808 19.909 52.9165 19.8481 53.0598 19.843C53.1293 19.8376 53.1991 19.8462 53.2652 19.868C53.3314 19.8899 53.3925 19.9247 53.445 19.9704C53.4976 20.0161 53.5406 20.0718 53.5714 20.1343C53.6023 20.1967 53.6204 20.2647 53.6247 20.3342Z" fill="#263238"/>
<path d="M47.7067 20.3783C47.71 20.4507 47.6988 20.5231 47.6738 20.5911C47.6488 20.6592 47.6105 20.7216 47.5611 20.7746C47.5117 20.8277 47.4522 20.8703 47.3861 20.9001C47.3201 20.9299 47.2487 20.9463 47.1762 20.9481C47.1068 20.9535 47.037 20.945 46.9708 20.9231C46.9047 20.9012 46.8436 20.8664 46.791 20.8207C46.7385 20.775 46.6955 20.7193 46.6647 20.6569C46.6338 20.5944 46.6157 20.5264 46.6113 20.4569C46.6112 20.3144 46.6665 20.1773 46.7655 20.0747C46.8644 19.9721 46.9994 19.9119 47.1418 19.9068C47.279 19.8958 47.415 19.939 47.5206 20.0272C47.6262 20.1154 47.693 20.2414 47.7067 20.3783Z" fill="#263238"/>
<path d="M50.4956 24.318C50.8061 24.2186 51.128 24.1591 51.4535 24.1411C51.6058 24.1411 51.7482 24.0969 51.7728 23.9938C51.7837 23.8384 51.7496 23.6832 51.6745 23.5468L51.2275 22.3973C50.8187 21.4254 50.4901 20.4216 50.2451 19.396C50.7339 20.3352 51.1493 21.3107 51.4879 22.3138L51.9152 23.4682C52.0078 23.65 52.0339 23.8586 51.9889 24.0576C51.9684 24.1112 51.9354 24.1592 51.8927 24.1977C51.85 24.2361 51.7988 24.2638 51.7433 24.2787C51.6599 24.3006 51.5741 24.3122 51.4879 24.3131C51.1586 24.3549 50.8254 24.3566 50.4956 24.318Z" fill="#263238"/>
<path d="M48.7566 24.7256C48.8549 24.7256 48.8549 25.3592 49.405 25.8161C49.9552 26.2729 50.6331 26.1992 50.638 26.3073C50.6429 26.4154 50.4857 26.435 50.2008 26.4399C49.8238 26.4465 49.4566 26.3195 49.1643 26.0813C48.888 25.8522 48.7119 25.5245 48.6731 25.1677C48.6437 24.8778 48.7124 24.7207 48.7566 24.7256Z" fill="#263238"/>
<path d="M48.5082 17.6226C48.4492 17.7847 47.8598 17.7062 47.1672 17.7897C46.4745 17.8732 45.9146 18.0647 45.8212 17.9174C45.7819 17.8486 45.8753 17.7012 46.1012 17.5441C46.3964 17.3515 46.7331 17.2319 47.0837 17.1953C47.4388 17.1524 47.7991 17.1945 48.1349 17.3181C48.405 17.4212 48.5327 17.544 48.5082 17.6226Z" fill="#263238"/>
<path d="M53.9401 18.1188C53.837 18.2514 53.4489 18.1188 52.9577 18.1188C52.4665 18.1188 52.0539 18.2121 51.9753 18.0697C51.8967 17.9272 51.9753 17.8683 52.1816 17.7406C52.4246 17.5877 52.7077 17.5107 52.9947 17.5194C53.2816 17.5282 53.5595 17.6223 53.7928 17.7897C53.9303 17.9125 54.004 18.05 53.9401 18.1188Z" fill="#263238"/>
<path d="M56.7558 11.9933C56.7839 11.7553 56.7509 11.5139 56.6598 11.2922C56.5686 11.0704 56.4225 10.8756 56.2351 10.726C56.041 10.5848 55.8031 10.5171 55.5637 10.5351C55.3244 10.5531 55.0992 10.6556 54.9285 10.8243C54.9648 10.6656 54.9677 10.5012 54.937 10.3414C54.9064 10.1816 54.8429 10.0299 54.7505 9.89599C54.6581 9.76204 54.5389 9.64876 54.4004 9.56333C54.2619 9.4779 54.1072 9.42219 53.946 9.39974C53.3173 9.36044 52.7868 9.83692 52.1777 9.99902C51.5735 10.1271 50.944 10.0547 50.3847 9.79271C49.8149 9.56675 49.2844 9.24746 48.7097 9.03624C47.4926 8.59085 46.1488 8.6445 44.9711 9.18551C43.7934 9.72652 42.8772 10.711 42.4222 11.9246C41.9934 11.8182 41.5423 11.8449 41.1291 12.0011C40.7158 12.1573 40.3598 12.4356 40.1086 12.7989C39.6207 13.5423 39.4264 14.4403 39.5633 15.3189C39.6445 15.9081 39.7911 16.4864 40.0005 17.043C40.0005 17.0921 40.0005 17.1413 40.0005 17.1904C40.0447 19.3075 40.2805 21.7882 41.1843 21.8029C42.7562 21.8029 42.378 18.8556 42.378 18.8556C44.3084 18.109 43.5913 15.2206 44.0726 14.7834C44.554 14.3463 45.5463 13.3098 49.5988 15.3876C51.1014 16.0583 52.7765 16.2404 54.3881 15.9083H54.4913H54.5257C54.8924 15.8167 55.2422 15.6675 55.5621 15.4662C55.9407 15.2493 56.2402 14.9172 56.4169 14.5182C56.4989 14.3174 56.5216 14.0974 56.4824 13.8841C56.4433 13.6708 56.3438 13.4732 56.1958 13.3147C56.5114 12.9408 56.7066 12.4802 56.7558 11.9933Z" fill="#263238"/>
<path d="M68.1464 50.8188L71.1969 56.3155L73.0586 41.3679C73.1408 40.2848 72.9268 39.1998 72.4396 38.229C72.2352 37.7952 71.9814 37.3864 71.6832 37.0108C71.3066 36.5461 70.8687 36.1346 70.3814 35.7877C70.278 35.7407 70.1919 35.6626 70.135 35.5643C70.0781 35.466 70.0533 35.3524 70.0641 35.2393C70.075 35.1262 70.1208 35.0194 70.1953 34.9336C70.2698 34.8479 70.3692 34.7876 70.4797 34.7611C70.9709 34.707 72.2972 35.4193 73.3435 36.8536C74.3897 38.288 74.4978 35.5273 74.5568 34.5253C74.6157 33.5232 74.9399 30.4384 75.2592 30.2173C75.7504 29.898 76.1729 30.3549 76.0943 31.3569C76.0157 32.359 75.9764 35.3702 76.5069 35.3898C77.0374 35.4095 77.2535 30.3008 77.2535 30.3008C77.2535 30.3008 77.1258 29.1956 77.7447 29.2005C78.845 29.2005 78.2065 34.6039 78.1328 35.0951C78.0837 35.4488 78.6584 35.493 78.6928 35.0951C78.7272 34.6972 78.8008 29.9963 79.9208 29.9865C80.7854 29.9865 79.4296 34.4369 79.9601 35.434C80.4906 36.4312 80.638 31.9415 81.4632 31.971C81.7678 31.971 81.9986 32.0299 81.5418 34.5842C81.2962 35.9596 80.3875 37.9392 80.1124 40.6212L80.0387 41.3139C79.9847 44.6541 79.2478 54.7191 76.2121 62.382C75.7878 63.4288 75.0859 64.3401 74.1821 65.0176C73.2783 65.6951 72.2068 66.1133 71.0829 66.2269C69.9591 66.3406 68.8255 66.1456 67.8043 65.6628C66.7831 65.1801 65.913 64.4279 65.2876 63.4872C63.4209 60.6726 60.4688 53.3142 60.4688 53.3142L68.1464 50.8188Z" fill="#B78876"/>
<path d="M78.4467 39.2606C78.4467 39.2852 78.2748 39.2606 78.0095 39.3736C77.6514 39.4987 77.3499 39.7479 77.1597 40.0761L77.0566 40.2627L76.9976 40.0564C76.9109 39.7627 76.7729 39.4866 76.5899 39.241C76.2349 38.7605 75.7438 38.3977 75.1801 38.1996C74.7478 38.0473 74.4531 38.0572 74.4531 38.0179C74.7087 37.9661 74.9736 37.9848 75.2194 38.0719C75.8333 38.2386 76.372 38.6094 76.7471 39.1231C76.9434 39.3861 77.0869 39.6847 77.1695 40.0024H77.0074C77.114 39.8225 77.2561 39.6661 77.425 39.5429C77.5938 39.4196 77.786 39.3319 77.9899 39.2852C78.1357 39.2291 78.2956 39.2205 78.4467 39.2606Z" fill="#7C5142"/>
<path d="M62.527 39.9091L71.1969 56.3156L72.6706 41.8101H80.4367L77.5827 62.4852C77.4464 63.6249 76.9895 64.7024 76.2652 65.5928C75.5409 66.4832 74.5789 67.1498 73.4909 67.5153C70.6714 68.4633 66.9234 67.3581 65.5333 64.7301L60.4541 56.0847L62.527 39.9091Z" fill="#8FD6D2"/>
<path d="M71.7362 63.1041C71.4892 62.8335 71.2929 62.5207 71.1566 62.1807C70.3954 60.5681 70.2217 58.7402 70.6653 57.0131C70.7407 56.6537 70.8769 56.3098 71.0681 55.9963C70.362 58.3617 70.5978 60.9086 71.7263 63.1041H71.7362Z" fill="#263238"/>
<g opacity="0.3">
<path opacity="0.3" d="M70.9514 55.7654C70.1573 56.318 69.6135 57.1619 69.4385 58.1134C69.2634 59.0569 69.2451 60.0229 69.3845 60.9723C69.3911 61.248 69.4653 61.5179 69.6006 61.7582C69.6708 61.8763 69.7791 61.9668 69.9077 62.0151C70.0363 62.0633 70.1774 62.0663 70.3079 62.0235C70.4089 61.9655 70.4917 61.8805 70.5472 61.7782C70.6027 61.6759 70.6287 61.5601 70.6223 61.4439C70.6056 61.2132 70.5543 60.9863 70.47 60.7709C70.225 59.9626 70.1618 59.11 70.2849 58.2744C70.4081 57.4387 70.7145 56.6407 71.1823 55.9374" fill="black"/>
</g>
<path d="M37.9518 36.0676C39.2486 35.822 40.5061 35.3505 42.0289 35.2866C45.2259 36.2958 48.6562 36.2958 51.8532 35.2866C52.256 35.3407 52.8356 35.3898 53.5086 35.4733C57.787 35.9645 59.4277 36.8831 62.5027 39.8942L62.1637 57.2095C62.1637 57.2095 63.1953 76.917 63.1462 80.1001H33.9091L33.8649 66.7489V63.1139L24.2666 66.631L25.141 61.5813C25.141 61.5813 29.444 44.8211 30.1219 42.5615C30.9176 39.8205 33.8649 36.8487 37.9518 36.0676Z" fill="#8FD6D2"/>
<path d="M28.6728 61.8466L42.7068 58.1969L46.72 64.7251L32.4257 70.7425C31.6772 71.0737 30.8666 71.2411 30.0482 71.2337C28.9017 71.2326 27.7814 70.8912 26.8291 70.2529C25.8769 69.6145 25.1355 68.7079 24.6989 67.6479L24.2666 66.5868L28.6728 61.8466Z" fill="#8FD6D2"/>
<path d="M35.9851 60.4221C35.9164 60.4221 35.8574 57.8432 35.8574 54.6651C35.8574 51.4869 35.9164 48.913 35.9851 48.913C36.0539 48.913 36.1178 51.4869 36.1178 54.6651C36.1178 57.8432 36.0588 60.4221 35.9851 60.4221Z" fill="#263238"/>
<g opacity="0.3">
<path opacity="0.3" d="M33.7617 70.2268C34.2193 70.9642 34.8654 71.5662 35.6332 71.9706C37.3869 72.9186 39.563 72.8941 41.4443 72.2751C43.3167 71.5818 45.0489 70.5568 46.5578 69.2493C48.6206 67.5851 50.5248 65.7335 52.2461 63.7182C52.3124 63.6602 52.3653 63.5883 52.4009 63.5077C52.4366 63.4271 52.4541 63.3397 52.4524 63.2515C52.4033 62.947 51.9612 62.9077 51.6763 62.9519C48.7683 63.4136 46.1157 64.8234 43.4632 66.1055C40.3096 67.6315 37.084 69.0037 33.7863 70.2219" fill="black"/>
</g>
<path d="M61.3716 50.6224C61.3584 50.6684 61.3403 50.7129 61.3175 50.755L61.1358 51.1332C61.0523 51.2953 60.9295 51.4869 60.7919 51.7178C60.6181 51.9757 60.4295 52.2233 60.227 52.4595C59.6739 53.111 59.0246 53.6742 58.3015 54.1296C57.3446 54.7383 56.2785 55.1554 55.1626 55.3577C53.8028 55.6002 52.4043 55.504 51.0905 55.0777C49.5816 54.5884 48.2167 53.7347 47.1165 52.5921C45.8779 51.3394 45.0254 49.7571 44.6605 48.0337C44.4729 47.1222 44.4646 46.1828 44.6359 45.2681C44.8225 44.3236 45.2298 43.4365 45.8247 42.6794C46.4202 41.9129 47.2257 41.3361 48.1432 41.0191C48.5973 40.8628 49.0812 40.8123 49.5579 40.8718C50.0362 40.9369 50.4816 41.1518 50.8301 41.4858C51.0032 41.6512 51.1417 41.8492 51.2378 42.0684C51.334 42.2876 51.3857 42.5236 51.3901 42.7629C51.388 43.2265 51.2497 43.6792 50.9922 44.0647C50.4685 44.7762 49.6943 45.2625 48.826 45.4253C47.2778 45.7751 45.6679 45.7431 44.1349 45.332C42.5098 44.9029 41.0236 44.0602 39.821 42.886C38.6184 41.7119 37.7404 40.2462 37.2726 38.6318C37.051 37.9407 36.9319 37.2208 36.9189 36.4951C36.9316 36.54 36.9398 36.5861 36.9435 36.6326L37.0025 37.0452C37.0856 37.5729 37.2088 38.0934 37.3709 38.6024C37.9652 40.4758 39.1 42.1317 40.6325 43.3622C41.6953 44.196 42.9198 44.7999 44.2282 45.1355C45.7262 45.5273 47.2965 45.5526 48.8063 45.2092C49.6142 45.0543 50.3346 44.6021 50.8252 43.9419C51.0558 43.5974 51.1789 43.1922 51.1789 42.7777C51.1759 42.5706 51.1308 42.3662 51.0463 42.177C50.9619 41.9879 50.8399 41.8179 50.6877 41.6774C50.377 41.3796 49.9795 41.1886 49.553 41.1321C49.1143 41.0777 48.6689 41.1248 48.2512 41.2697C47.3836 41.5745 46.6216 42.1217 46.0555 42.8465C45.4868 43.5728 45.0964 44.4224 44.9159 45.3271C44.7438 46.2079 44.7438 47.1136 44.9159 47.9944C45.2629 49.6704 46.0808 51.2126 47.2737 52.4399C48.3455 53.5605 49.674 54.4035 51.1445 54.8959C52.4262 55.3198 53.792 55.4244 55.1233 55.2005C56.2203 55.01 57.2707 54.6115 58.218 54.0265C58.9348 53.586 59.5835 53.0432 60.1435 52.4153C60.6187 51.8655 61.0306 51.2641 61.3716 50.6224Z" fill="#E0E0E0"/>
<path d="M62.6004 69.7601C62.3996 69.1397 62.1311 68.5434 61.7997 67.9819C61.3392 67.2254 60.7199 66.578 59.9845 66.0844C59.2492 65.5908 58.4155 65.2627 57.5409 65.123C56.3364 64.9144 55.1009 64.9714 53.9207 65.29C53.2632 65.461 52.6246 65.698 52.0148 65.9974C51.3651 66.3031 50.7656 66.7056 50.2366 67.191C49.6869 67.6939 49.3263 68.3701 49.2148 69.1068C49.1503 69.4804 49.1953 69.8647 49.3444 70.2134C49.4934 70.562 49.7402 70.8601 50.0548 71.0716C50.3696 71.3025 50.7631 71.3991 51.1489 71.3401C51.5348 71.2812 51.8815 71.0715 52.113 70.7572C52.6102 70.0843 52.9463 69.3062 53.0954 68.4829C53.4422 66.8552 53.3299 65.1631 52.7712 63.5953C52.2641 62.13 51.3917 60.818 50.2366 59.7835C49.1899 58.8466 47.9654 58.1299 46.636 57.6762C45.2174 57.1801 43.7096 56.9909 42.2124 57.1213C40.7152 57.2517 39.2628 57.6987 37.9513 58.4327C37.3962 58.7323 36.9935 59.0074 36.7135 59.1892L36.404 59.4004L36.291 59.4691C36.7881 59.0399 37.328 58.663 37.9022 58.3443C39.4608 57.4306 41.2289 56.9348 43.0354 56.905C44.2822 56.8826 45.5235 57.0754 46.7047 57.4748C48.0663 57.9279 49.3214 58.6533 50.3938 59.6067C51.5821 60.6665 52.4829 62.01 53.0119 63.5118C53.5866 65.1253 53.7022 66.8666 53.346 68.5419C53.1918 69.4036 52.8422 70.2186 52.3242 70.9243C52.0501 71.2815 51.6482 71.5184 51.2029 71.5853C50.7577 71.6522 50.3039 71.5438 49.9369 71.2828C49.5706 71.0495 49.2884 70.7053 49.1313 70.3004C48.9808 69.9114 48.9317 69.4905 48.9889 69.0773C49.1016 68.2877 49.4854 67.5618 50.0745 67.024C50.6216 66.5246 51.241 66.1107 51.9116 65.796C52.5408 65.4927 53.1991 65.254 53.8765 65.0837C55.0881 64.77 56.3531 64.7214 57.5851 64.9413C58.4784 65.0942 59.3274 65.4408 60.0725 65.9567C60.8175 66.4726 61.4406 67.1454 61.898 67.9278C62.1441 68.3497 62.3418 68.7979 62.4874 69.264C62.5266 69.385 62.5594 69.5079 62.5857 69.6324C62.5962 69.6741 62.6011 69.717 62.6004 69.7601Z" fill="#E0E0E0"/>
<path d="M35.8593 53.2994C35.8593 53.2994 35.7856 53.4222 35.6137 53.6089C35.381 53.8786 35.1245 54.1268 34.8474 54.3506C34.4331 54.6825 33.9834 54.9675 33.5064 55.2004C32.919 55.4853 32.2986 55.6965 31.6594 55.8292C30.4967 56.0416 29.3051 56.0416 28.1423 55.8292C27.7914 55.7685 27.4438 55.6899 27.101 55.5934C26.8603 55.5197 26.7276 55.4755 26.7326 55.4559C26.7375 55.4362 27.2827 55.5394 28.1669 55.6474C29.3104 55.7997 30.4707 55.7715 31.6054 55.5639C32.223 55.4343 32.8243 55.2367 33.3983 54.9745C33.8681 54.7563 34.3155 54.4931 34.7344 54.1885C35.4418 53.6728 35.8298 53.27 35.8593 53.2994Z" fill="#E0E0E0"/>
<path d="M33.2409 70.3397C33.108 69.815 32.9271 69.3037 32.7006 68.812C32.4184 68.2306 32.0219 67.7121 31.5347 67.2876C31.0474 66.863 30.4795 66.5411 29.865 66.3412C29.2505 66.1412 28.6019 66.0673 27.9581 66.1239C27.3143 66.1804 26.6886 66.3663 26.1183 66.6703C25.6465 66.9342 25.1993 67.24 24.7822 67.584C24.8533 67.4529 24.9482 67.3363 25.0622 67.2402C25.3532 66.9507 25.6841 66.7043 26.0446 66.5082C26.6318 66.1688 27.2838 65.9567 27.9583 65.8858C28.6328 65.8149 29.3146 65.8867 29.9595 66.0966C30.6045 66.3065 31.198 66.6497 31.7015 67.104C32.2051 67.5583 32.6074 68.1135 32.8823 68.7334C33.0529 69.1018 33.1719 69.4919 33.236 69.8927C33.2643 70.0402 33.266 70.1916 33.2409 70.3397Z" fill="#E0E0E0"/>
<path d="M64.2008 62.2101C64.1324 62.0539 64.0877 61.8883 64.0682 61.7189C63.9728 61.2773 63.912 60.8289 63.8864 60.3779C63.8409 59.7065 63.8573 59.0323 63.9356 58.3639C64.0383 57.5439 64.2276 56.7371 64.5005 55.9569C64.7833 55.1814 65.1489 54.4387 65.591 53.7416C65.9519 53.1728 66.3664 52.6399 66.8288 52.15C67.1336 51.8189 67.4619 51.5103 67.8112 51.2266C67.9323 51.1142 68.0678 51.0184 68.214 50.9417C68.2484 50.9809 67.6933 51.4329 66.9516 52.2728C66.5178 52.7707 66.1252 53.3029 65.7776 53.8644C64.9279 55.2443 64.3773 56.7872 64.1615 58.3934C64.0732 59.0444 64.0387 59.7015 64.0584 60.3582C64.1026 61.5273 64.2499 62.2101 64.2008 62.2101Z" fill="#E0E0E0"/>
<path d="M78.8899 52.597C78.8899 52.597 78.8113 52.7198 78.6198 52.8868C78.3376 53.1194 78.019 53.3036 77.6766 53.432C77.1083 53.6402 76.502 53.7238 75.8985 53.6771C75.2951 53.6305 74.7088 53.4548 74.1792 53.1619C73.5912 52.8342 73.1077 52.3473 72.7841 51.757C72.525 51.2828 72.3426 50.7705 72.2438 50.2392C72.17 49.8882 72.1256 49.5316 72.1112 49.1732C72.084 49.042 72.084 48.9066 72.1112 48.7753C72.1554 48.7753 72.1898 49.3353 72.401 50.1999C72.5252 50.7031 72.7168 51.1872 72.9708 51.6391C73.2843 52.1837 73.7392 52.6334 74.2873 52.9408C74.7893 53.2163 75.3422 53.3866 75.9123 53.4415C76.4823 53.4964 77.0575 53.4347 77.603 53.2601C78.0572 53.0919 78.4893 52.8693 78.8899 52.597Z" fill="#E0E0E0"/>
<path d="M63.1512 41.1468C63.0486 41.2437 62.9286 41.3204 62.7975 41.3728C62.4553 41.5431 62.0893 41.6606 61.7119 41.7215C61.1505 41.8124 60.5767 41.794 60.0222 41.6675C59.3428 41.5085 58.7016 41.2163 58.1359 40.8079C57.1026 40.0545 56.399 38.9322 56.1711 37.6739C56.1021 37.2999 56.0822 36.9184 56.1121 36.5392C56.1152 36.3983 56.1417 36.2588 56.1907 36.1266C56.2069 36.6324 56.2594 37.1364 56.3479 37.6346C56.6211 38.815 57.3054 39.8598 58.2784 40.5819C58.8181 40.9707 59.4264 41.254 60.0713 41.417C60.5979 41.5475 61.1436 41.5824 61.6825 41.5201C62.1824 41.4405 62.6739 41.3155 63.1512 41.1468Z" fill="#E0E0E0"/>
<path d="M47.7362 79.8938C47.3463 79.1814 46.92 78.4895 46.459 77.8209C45.305 76.2379 43.8003 74.9433 42.0627 74.0386C41.1076 73.5444 40.0967 73.1667 39.0515 72.9137C38.1964 72.7142 37.3212 72.6136 36.4432 72.6141C35.6326 72.6451 34.8243 72.7189 34.0215 72.8351C34.2245 72.749 34.4373 72.6879 34.6551 72.6534C35.2432 72.5257 35.8417 72.4518 36.4432 72.4323C37.3375 72.4062 38.2317 72.4904 39.1055 72.6828C40.1742 72.928 41.2074 73.3076 42.1805 73.8126C43.9532 74.7305 45.4718 76.0719 46.6015 77.7178C46.941 78.2119 47.24 78.7326 47.4955 79.2749C47.6014 79.4703 47.6823 79.6782 47.7362 79.8938Z" fill="#E0E0E0"/>
<path d="M61.7892 47.4344C61.8579 47.4344 62.2804 54.6749 62.7274 63.615C63.1744 72.5551 63.4839 79.8005 63.4102 79.825C63.3365 79.8496 62.919 72.5845 62.472 63.6444C62.025 54.7043 61.7155 47.4393 61.7892 47.4344Z" fill="#263238"/>
<path d="M42.7061 58.1969C43.6892 57.7121 44.5214 56.9682 45.113 56.0454C45.3835 55.6447 45.6076 55.2146 45.781 54.7633C45.9872 54.1984 46.1177 53.6088 46.1691 53.0097C46.1691 52.4546 46.8126 52.1648 47.1122 52.5627C47.4119 52.9605 47.4708 54.4784 46.7684 56.1191C46.066 57.7597 48.5122 56.4433 49.4111 55.9766C50.31 55.5099 53.1542 54.2033 53.5078 54.3703C54.0285 54.6159 53.8566 55.2349 52.9479 55.677C52.0391 56.119 49.4111 57.6418 49.6666 58.133C49.922 58.6242 54.4608 56.1682 54.4608 56.1682C54.4608 56.1682 55.3548 55.4903 55.6643 56.0208C56.2292 57.0032 51.2434 59.199 50.7521 59.4004C50.4181 59.5379 50.6785 60.0586 51.0321 59.8916C51.3858 59.7246 55.5071 57.3569 56.0916 58.3295C56.5435 59.0712 51.99 60.1961 51.3907 61.1638C50.7914 62.1315 54.7653 59.9554 55.1681 60.6726C55.3155 60.9477 55.3892 61.1638 52.938 62.0873C51.6216 62.5785 49.4406 62.8143 46.9747 63.9539L46.3312 64.2437" fill="#B78876"/>
<path d="M32.9752 70.5116C33.0586 70.4567 33.1475 70.4106 33.2405 70.3741L34.0117 70.0253L36.9 68.7678L46.6703 64.6072L46.6113 64.7939L45.3047 62.7013L42.5244 58.2804L42.6669 58.3295L34.3555 60.9624L31.9486 61.7091L31.3002 61.8957L31.0742 61.9498C31.1412 61.9081 31.2141 61.8767 31.2903 61.8564L31.924 61.6305L34.3064 60.82L42.5784 58.0839L42.6718 58.0544L42.7209 58.133L45.511 62.554L46.8176 64.6465L46.8962 64.7693L46.7587 64.8283L36.9344 68.9103L34.0166 70.0941L33.2257 70.4036C33.1455 70.4467 33.0617 70.4828 32.9752 70.5116Z" fill="#263238"/>
<path d="M32.6465 59.3315C33.225 59.1415 33.8464 59.1244 34.4345 59.2824C35.0225 59.4403 35.5518 59.7664 35.9573 60.2206C35.4456 59.9486 34.9135 59.717 34.3657 59.528C33.7984 59.4198 33.2237 59.3541 32.6465 59.3315Z" fill="#263238"/>
<path d="M107.456 135.54L72.3078 74.2476C80.194 68.6727 85.8428 60.4774 88.2467 51.1237C93.726 29.9052 81.2945 7.92953 60.2965 1.69712C55.1067 0.153634 49.6621 -0.344074 44.2785 0.232864C38.8949 0.809802 33.6793 2.4499 28.9345 5.05805C24.1896 7.66619 20.0097 11.1905 16.6374 15.4265C13.265 19.6625 10.7673 24.5259 9.28903 29.7346C3.14815 51.3691 15.8501 74.1395 37.4929 80.2637C46.2633 82.7604 55.618 82.2403 64.0576 78.7867L98.6603 140.545C98.9859 141.126 99.4232 141.638 99.9471 142.049C100.471 142.461 101.071 142.765 101.713 142.944C102.355 143.123 103.026 143.174 103.687 143.093C104.348 143.011 104.987 142.8 105.567 142.471C106.148 142.142 106.658 141.701 107.068 141.174C107.478 140.647 107.779 140.043 107.955 139.399C108.131 138.755 108.177 138.082 108.091 137.419C108.006 136.757 107.789 136.118 107.456 135.54ZM38.5039 77.0934C31.3243 75.1128 24.8933 71.0477 20.024 65.4121C15.1548 59.7765 12.0661 52.8235 11.1484 45.4325C10.2308 38.0415 11.5254 30.5443 14.8687 23.8891C18.2119 17.2338 23.4536 11.7194 29.9309 8.04325C36.4082 4.36705 43.8301 2.69415 51.2581 3.2361C58.6862 3.77805 65.7867 6.51051 71.6618 11.0879C77.5369 15.6654 81.9227 21.8822 84.2645 28.9522C86.6064 36.0222 86.7991 43.6279 84.8184 50.8075C82.1624 60.4348 75.7907 68.6128 67.1051 73.5424C58.4195 78.4719 48.1313 79.7493 38.5039 77.0934Z" fill="#455A64"/>
<path d="M25.8779 66.2887C25.8779 66.2887 25.8363 66.2595 25.7655 66.193L25.4577 65.8934C25.1956 65.623 24.7712 65.2527 24.2969 64.716C22.9123 63.2262 21.6659 61.6136 20.5733 59.8982C19.8104 58.7171 19.1158 57.4933 18.493 56.2328C17.7908 54.7823 17.1821 53.2884 16.6707 51.7603C14.2783 44.6988 14.2229 37.0547 16.5126 29.9593C17.4162 27.0764 18.6843 24.3206 20.2862 21.759C21.3564 20.0308 22.5789 18.4018 23.9391 16.8912C24.4092 16.3462 24.8253 15.9676 25.0832 15.693L25.3869 15.3893C25.4577 15.3227 25.4951 15.2895 25.4993 15.2936C25.4698 15.3331 25.4379 15.3706 25.4036 15.4059L25.1123 15.7263C24.8669 16.0092 24.4592 16.392 24.0015 16.9495C22.6706 18.4766 21.4709 20.1133 20.4152 21.8422C19.6855 23.0344 19.0229 24.2665 18.4306 25.5326C17.7615 26.9904 17.1835 28.4882 16.6998 30.0176C14.4492 37.0764 14.5046 44.6685 16.8579 51.6937C17.363 53.2166 17.9633 54.7062 18.6553 56.1537C19.2663 57.411 19.9469 58.6333 20.6939 59.8149C21.7742 61.5295 22.9975 63.1495 24.351 64.6577C24.817 65.2028 25.2288 65.5814 25.4785 65.8643C25.6033 65.9974 25.699 66.1014 25.7739 66.1763C25.8114 66.2111 25.8461 66.2486 25.8779 66.2887Z" fill="#E0E0E0"/>
<path d="M37.9757 8.68677C37.6199 8.86167 37.2513 9.00911 36.8731 9.12778C36.1866 9.38573 35.2505 9.76017 34.2479 10.2428C33.2452 10.7254 32.3673 11.2247 31.7349 11.5991C31.4074 11.8222 31.0623 12.0184 30.7031 12.1857C30.9939 11.9134 31.3133 11.6735 31.6559 11.4701C32.4555 10.9446 33.2894 10.4735 34.1522 10.0597C35.0168 9.64331 35.9093 9.28742 36.8232 8.99464C37.1946 8.84901 37.5811 8.74574 37.9757 8.68677Z" fill="#E0E0E0"/>
</g>
</svg>
