<svg width="200" height="200" viewBox="0 0 200 200" fill="none" xmlns="http://www.w3.org/2000/svg">
<mask id="mask0" mask-type="alpha" maskUnits="userSpaceOnUse" x="0" y="0" width="200" height="200">
<circle cx="100" cy="100" r="100" fill="#C4C4C4"/>
</mask>
<g mask="url(#mask0)">
<path d="M173.368 76.5019C173.777 76.2737 174.246 76.175 174.711 76.219C175.177 76.263 175.619 76.4475 175.978 76.7482L205.366 100.51L200.855 121.077L171.498 96.8919C171.051 96.5231 170.704 96.0478 170.489 95.5098C170.274 94.9718 170.197 94.3883 170.266 93.813L172.122 78.2877C172.17 77.9116 172.309 77.5529 172.526 77.242C172.743 76.9311 173.032 76.6772 173.368 76.5019Z" fill="#263238"/>
<path d="M166.672 145.646L199.47 118.144L210.592 122.693C210.592 122.693 174.207 179.983 170.567 182.231C166.926 184.479 155.942 180.491 155.942 180.491L166.672 145.646Z" fill="#FFBE9D"/>
<path d="M185.638 101.279C182.467 101.048 183.252 96.7302 183.252 96.7302L193.166 95.6218L185.561 94.2594C185.202 94.0989 184.881 93.8662 184.616 93.5759C184.351 93.2856 184.149 92.9439 184.022 92.572C183.895 92.2002 183.845 91.8062 183.877 91.4145C183.909 91.0228 184.021 90.6419 184.206 90.2954L195.621 91.6501C195.621 91.6501 202.695 94.1979 204.966 95.0523C207.236 95.9067 206.982 99.8553 206.982 99.8553C208.745 100.371 209.361 102.88 209.138 103.465C208.914 104.05 211.393 118.767 211.393 118.767L210.623 122.67L199.709 118.914C199.239 117.798 199.632 115.558 199.632 115.558L196.16 115.15C196.16 115.15 190.002 115.019 189.841 113.349C189.755 112.761 189.905 112.163 190.258 111.686C190.611 111.208 191.139 110.89 191.727 110.801C189.815 111.312 187.822 111.441 185.861 111.178C182.405 110.762 183.159 108.268 183.159 108.268L191.965 105.959C191.965 105.959 196.891 105.474 198.677 105.844C198.894 105.899 199.121 105.911 199.342 105.878C199.564 105.846 199.778 105.77 199.97 105.655C200.163 105.54 200.33 105.388 200.464 105.207C200.597 105.027 200.694 104.822 200.748 104.605L195.46 101.687C195.46 101.687 188.809 101.503 185.638 101.279Z" fill="#FFBE9D"/>
<path d="M201.995 110.408C201.496 110.563 200.977 110.635 200.455 110.624C199.516 110.693 198.223 110.708 196.799 110.693C193.951 110.639 191.673 110.932 191.657 110.824C192.133 110.639 192.634 110.527 193.143 110.493C194.356 110.343 195.577 110.276 196.799 110.293L200.447 110.339C200.964 110.298 201.484 110.321 201.995 110.408Z" fill="#EB996E"/>
<path d="M205.035 114.796C204.185 115.169 203.269 115.37 202.341 115.388C201.435 115.533 200.518 115.597 199.601 115.581C200.452 115.204 201.371 115.002 202.302 114.988C203.205 114.839 204.12 114.775 205.035 114.796Z" fill="#EB996E"/>
<path d="M205.104 99.5243C205.043 99.6398 202.564 98.2543 199.262 97.2151C197.854 96.7586 196.423 96.3757 194.975 96.0682C194.361 95.9834 193.756 95.8443 193.166 95.6526C193.788 95.6208 194.411 95.6673 195.021 95.7911C196.506 96.0126 197.969 96.3629 199.393 96.838C200.817 97.3056 202.199 97.89 203.526 98.5852C204.089 98.8319 204.619 99.1473 205.104 99.5243Z" fill="#EB996E"/>
<path d="M178.818 87.6013C178.762 87.8285 178.64 88.0341 178.468 88.1926C178.296 88.3511 178.081 88.4555 177.85 88.4927C177.619 88.5299 177.382 88.4983 177.168 88.4019C176.955 88.3055 176.775 88.1485 176.65 87.9505C176.526 87.7524 176.462 87.5221 176.467 87.2881C176.472 87.0541 176.546 86.8269 176.68 86.6346C176.813 86.4423 177 86.2935 177.217 86.2068C177.435 86.12 177.673 86.099 177.902 86.1465C178.216 86.2181 178.489 86.4116 178.661 86.6844C178.833 86.9571 178.889 87.2869 178.818 87.6013Z" fill="#EBEBEB"/>
<path d="M201.517 62.3775C201.594 62.4622 198.069 65.6873 193.651 69.5821C189.233 73.4769 185.592 76.5712 185.522 76.5096C185.453 76.448 188.971 73.2075 193.389 69.305C197.807 65.4025 201.471 62.3005 201.517 62.3775Z" fill="#263238"/>
<path d="M185.122 59.5911C184.734 61.2598 184.22 62.8964 183.583 64.4865C183.061 66.1204 182.417 67.713 181.658 69.2511C182.039 67.5805 182.554 65.9434 183.198 64.3557C183.712 62.7189 184.355 61.1257 185.122 59.5911Z" fill="#263238"/>
<path d="M173.807 69.5051C173.552 68.6695 173.365 67.815 173.245 66.9496C172.914 65.2562 172.514 63.101 172.06 60.7918C171.606 58.4827 171.175 56.2966 170.844 54.634C170.639 53.7859 170.495 52.9242 170.413 52.0555C170.721 52.8725 170.958 53.7147 171.121 54.5725C171.506 56.1119 171.983 58.321 172.452 60.7303C172.922 63.1395 173.291 65.3486 173.522 66.9496C173.684 67.7926 173.78 68.6471 173.807 69.5051Z" fill="#263238"/>
<path d="M168.165 72.5224C166.045 71.3093 164.062 69.8691 162.253 68.2274C163.35 68.7734 164.383 69.4394 165.332 70.2133C166.357 70.8786 167.307 71.6528 168.165 72.5224Z" fill="#263238"/>
<path d="M99.1438 105.998L92.0624 159.393L65.1221 111.848L65.6224 154.121L75.6904 191.175L111.175 170.216L105.463 119.36C105.463 119.36 100.822 105.467 99.1438 105.998Z" fill="white"/>
<path d="M167.296 143.06C163.693 141.944 157.674 145.408 156.897 146.285C156.119 147.162 127.647 115.966 123.029 110.878C122.838 110.63 122.626 110.398 122.398 110.185C119.018 107.106 103.216 100.425 103.216 100.425L96.7119 94.906C96.7119 94.906 97.982 103.042 98.744 108.23C98.744 108.23 103.809 115.111 105.333 119.375C106.857 123.64 107.473 149.718 107.473 149.718C107.473 149.718 113.415 180.822 112.807 180.992L122.382 178.559V182.485L148.283 199.157C148.283 199.157 167.934 197.372 172.26 194.377C176.586 191.383 167.296 143.06 167.296 143.06Z" fill="#B8B8FF"/>
<path d="M110.728 172.586C110.722 172.528 110.722 172.468 110.728 172.409C110.767 172.271 110.813 172.109 110.867 171.901C110.998 171.432 111.175 170.778 111.413 169.954C111.906 168.23 112.622 165.782 113.499 162.742C115.324 156.584 117.848 148.055 120.712 138.372V138.557C119.357 136.856 117.933 135.086 116.486 133.277C115.431 131.96 114.392 130.667 113.407 129.428L113.276 129.266L113.438 129.143L119.957 124.425L119.896 124.656C118.272 121.078 116.338 117.65 114.115 114.411C112.129 111.47 110.266 108.961 108.635 106.906C105.41 102.811 103.316 100.556 103.316 100.556C103.471 100.665 103.616 100.788 103.747 100.925C104.009 101.187 104.386 101.587 104.863 102.111C105.818 103.165 107.172 104.728 108.819 106.729C110.467 108.73 112.368 111.255 114.385 114.203C116.642 117.443 118.602 120.879 120.242 124.471L120.304 124.61L120.181 124.702L113.676 129.436L113.715 129.151L116.794 133L121.02 138.288L121.089 138.365V138.465C118.172 148.132 115.601 156.653 113.753 162.788C112.822 165.821 112.075 168.261 111.544 169.969C111.283 170.785 111.082 171.432 110.936 171.901L110.767 172.394C110.765 172.46 110.752 172.525 110.728 172.586Z" fill="#263238"/>
<path d="M156.265 166.375C156.174 166.126 156.109 165.868 156.073 165.605C155.981 165.097 155.857 164.366 155.742 163.457C155.436 161.084 155.307 158.691 155.357 156.299C155.408 153.903 155.666 151.516 156.127 149.164C156.312 148.271 156.481 147.547 156.627 147.055C156.679 146.789 156.765 146.53 156.881 146.285C156.943 146.285 156.696 147.409 156.404 149.21C156.026 151.556 155.805 153.924 155.742 156.299C155.697 158.676 155.787 161.053 156.011 163.419C156.188 165.236 156.327 166.359 156.265 166.375Z" fill="#263238"/>
<path d="M152.648 164.096C152.579 163.862 152.547 163.617 152.555 163.373C152.517 162.903 152.501 162.218 152.517 161.379C152.576 159.183 152.873 157 153.402 154.867C153.94 152.75 154.677 150.688 155.603 148.71C155.957 147.94 156.265 147.34 156.504 146.932C156.608 146.71 156.74 146.504 156.896 146.316C156.95 146.316 156.504 147.286 155.865 148.825C155.021 150.823 154.329 152.881 153.794 154.983C153.271 157.091 152.938 159.242 152.801 161.41C152.694 163.057 152.717 164.096 152.648 164.096Z" fill="#263238"/>
<g opacity="0.3">
<path opacity="0.3" d="M157.174 146.216C154.729 148.454 152.922 151.3 151.937 154.464C150.951 157.628 150.822 160.997 151.562 164.227C151.855 165.413 152.54 166.798 153.764 166.829C154.205 166.794 154.625 166.621 154.963 166.336C155.301 166.05 155.541 165.665 155.65 165.236C155.849 164.374 155.875 163.482 155.727 162.611C155.211 157.233 155.541 151.807 156.704 146.531" fill="black"/>
</g>
<g opacity="0.3">
<path opacity="0.3" d="M107.473 149.703C112.145 129.059 110.105 113.641 97.1045 97.1612L98.744 108.214C98.744 108.214 105.094 118.159 105.579 119.914C106.741 124.055 107.473 149.703 107.473 149.703Z" fill="black"/>
</g>
<path d="M134.898 169.769C134.898 169.769 151.501 166.69 160.083 170.824C168.666 174.957 215.08 223.488 215.08 223.488L193.251 241.153L122.382 191.36L134.898 169.769Z" fill="#263238"/>
<path d="M32.1245 268.094C32.1245 268.094 46.0565 272.312 59.6421 269.779C73.2277 267.247 122.567 222.334 122.567 222.334H126.223C126.223 222.334 125.661 227.121 128.194 229.654C130.726 232.186 176.956 262.198 176.956 262.198L204.827 236.45C204.827 236.45 141.341 172.486 133.782 170.439C126.223 168.391 118.303 166.413 110.69 171.486C103.078 176.558 32.1245 217.292 32.1245 217.292V268.094Z" fill="#263238"/>
<path d="M133.781 170.439C134.109 170.486 134.426 170.587 134.72 170.739C135.565 171.168 136.373 171.665 137.137 172.225C139.154 173.641 141.925 175.881 145.25 178.76C151.901 184.517 160.775 192.815 170.428 202.128C180.08 211.442 188.693 220.017 194.897 226.244L202.21 233.656L204.18 235.688L204.688 236.227C204.746 236.288 204.8 236.352 204.85 236.42L204.657 236.25C204.519 236.127 204.342 235.958 204.126 235.742L202.102 233.764L194.697 226.444C188.447 220.286 179.803 211.735 170.151 202.421C160.498 193.107 151.677 184.779 145.065 178.975C141.763 176.073 139.031 173.803 137.045 172.348C136.296 171.777 135.506 171.262 134.682 170.808C134.392 170.661 134.091 170.538 133.781 170.439Z" fill="#455A64"/>
<path d="M130.826 197.941C130.791 198.265 130.724 198.585 130.626 198.896C130.449 199.581 130.218 200.435 129.948 201.474C129.386 203.652 128.617 206.662 127.932 210.018C127.247 213.374 126.815 216.453 126.592 218.685C126.477 219.801 126.392 220.71 126.346 221.333C126.341 221.66 126.299 221.985 126.223 222.303C126.185 221.978 126.185 221.65 126.223 221.325C126.223 220.694 126.261 219.786 126.338 218.662C126.564 215.729 126.975 212.814 127.57 209.933C128.255 206.562 129.071 203.56 129.71 201.397C130.033 200.32 130.302 199.45 130.479 198.849C130.563 198.535 130.679 198.231 130.826 197.941Z" fill="#455A64"/>
<path d="M115.547 198.734C115.694 199.02 115.808 199.322 115.886 199.634C116.093 200.304 116.363 201.174 116.655 202.136L119.249 210.364C120.227 213.551 121.104 216.43 121.782 218.631L122.513 221.148C122.619 221.453 122.694 221.768 122.736 222.087C122.576 221.806 122.452 221.506 122.367 221.194C122.159 220.617 121.866 219.77 121.512 218.716C120.804 216.615 119.865 213.705 118.864 210.48C117.864 207.255 116.994 204.322 116.409 202.182C116.109 201.12 115.878 200.25 115.732 199.65C115.639 199.352 115.577 199.045 115.547 198.734Z" fill="#455A64"/>
<path d="M140.055 221.602C143.619 218.87 151.701 211.881 154.68 208.517C158.083 204.626 160.828 200.206 162.808 195.432C155.565 200.027 143.788 213.89 140.055 221.602Z" fill="#FFBE9D"/>
<path d="M60.1114 92.6892L53.9536 97.8617C53.9536 97.8617 39.9754 103.473 32.1319 109.969C25.2044 115.719 15.9677 157.192 15.9677 157.192V229.684C15.9677 229.684 0.750304 257.225 0.280773 260.473C-0.00172797 263.698 -0.0711454 266.938 0.072956 270.172L45.7175 270.403C43.6085 266.1 37.8895 264.522 37.8895 264.522C39.1749 243.963 39.8214 228.137 45.2865 218.816C50.7515 209.495 79.9702 195.724 79.9702 195.724V167.46L60.1114 92.6892Z" fill="#B8B8FF"/>
<path d="M79.9626 171.486C79.8704 171.378 79.788 171.262 79.7163 171.139L79.0389 170.093L76.5065 166.105L67.5854 151.866L67.5393 151.804V151.727C68.4629 148.71 69.4713 145.384 70.5412 141.89L70.7259 142.136H61.6201L61.5739 142.082C61.0481 141.375 60.6639 140.572 60.4424 139.719C59.588 136.807 58.9094 133.846 58.4103 130.852C57.8792 127.958 57.4251 125.164 57.0248 122.501C56.2551 117.166 55.5855 112.348 55.0774 108.307C54.5694 104.266 54.2 100.979 53.9536 98.7161C53.8459 97.6 53.7535 96.7225 53.6919 96.0991L53.6304 95.4217C53.6206 95.3425 53.6206 95.2623 53.6304 95.1831C53.6555 95.2578 53.671 95.3354 53.6765 95.414C53.6765 95.591 53.7304 95.8143 53.7689 96.0914C53.8536 96.7148 53.969 97.5846 54.1076 98.693C54.4078 101.002 54.8311 104.25 55.3545 108.268C55.8779 112.286 56.563 117.12 57.3866 122.447C57.8023 125.102 58.2564 127.896 58.7952 130.775C59.3015 133.752 59.9774 136.697 60.8196 139.596C61.0264 140.384 61.376 141.128 61.851 141.79L61.7124 141.736H71.0184L70.9414 141.982C69.8638 145.477 68.8401 148.802 67.9087 151.812V151.665C71.5264 157.569 74.5591 162.495 76.699 165.982C77.7381 167.706 78.5617 169.061 79.1467 170.023L79.7779 171.093C79.85 171.219 79.9118 171.35 79.9626 171.486Z" fill="#263238"/>
<g opacity="0.3">
<path opacity="0.3" d="M44.1936 220.248C43.3854 218.57 40.1295 217.03 38.6285 215.93C27.7216 207.932 19.6471 196.025 17.3765 182.831C17.9845 193.969 20.7479 204.861 23.5342 215.668C24.227 218.37 24.9428 221.141 26.6131 223.365C28.2834 225.59 31.0852 227.214 33.8024 226.598C34.0948 229.084 34.9646 232.178 37.4432 232.494C38.1144 232.529 38.7832 232.387 39.3828 232.084C39.9824 231.78 40.4919 231.324 40.8607 230.762C41.6304 229.677 42.2539 226.036 42.608 224.743C43.0336 223.21 43.5634 221.708 44.1936 220.248Z" fill="black"/>
</g>
<g opacity="0.3">
<path opacity="0.3" d="M61.8584 141.921L66.954 143.653C65.5454 146.254 64.0983 149.233 64.9989 152.05C65.6043 153.658 66.5434 155.119 67.7545 156.338C70.6717 159.54 76.9911 168.484 79.9623 171.486L67.7391 151.773L70.7564 141.944L61.8584 141.921Z" fill="black"/>
</g>
<path d="M67.3158 182.654L107.865 160.332L121.027 150.411L132.573 145.939H147.536C147.536 145.939 148.753 149.549 146.636 150.049C144.026 150.672 136.229 151.427 136.229 151.427L129.148 154.198C129.148 154.198 149.876 152.574 150.238 153.12C150.6 153.667 149.722 156.345 147.559 157.246C145.397 158.146 133.112 160.325 133.112 160.325C135.058 161.502 137.341 161.997 139.601 161.733C143.211 161.225 148.799 158.701 149.522 160.14C150.246 161.579 147.898 164.681 147.898 164.681C148.02 165.434 147.952 166.205 147.699 166.925C147.446 167.644 147.017 168.288 146.451 168.799C144.473 170.778 141.225 171.878 138.161 172.409C135.098 172.941 126.076 173.487 125.361 173.487C124.645 173.487 114.184 175.288 114.184 175.288L60.4961 211.827L67.3158 182.654Z" fill="#FFBE9D"/>
<path d="M148.314 164.512C148.11 164.663 147.887 164.787 147.652 164.881C147.213 165.097 146.567 165.382 145.751 165.651C141.473 167.258 136.901 167.927 132.342 167.614C131.472 167.545 130.803 167.468 130.295 167.383C130.031 167.367 129.771 167.31 129.525 167.214C129.525 167.152 130.603 167.275 132.327 167.329C134.578 167.404 136.832 167.278 139.062 166.952C141.289 166.632 143.483 166.116 145.62 165.413C147.298 164.874 148.283 164.45 148.314 164.512Z" fill="#EB996E"/>
<path d="M15.96 157.192C15.96 176.435 17.638 194.485 26.4205 210.118C28.2139 213.312 30.6925 216.561 34.2717 217.307H37.8817L39.7059 219.255C39.7059 219.255 53.5994 225.513 56.1472 224.127C58.695 222.742 64.3832 194.731 64.3832 194.731L67.9702 179.645L60.1113 180.976C60.1113 180.976 58.2716 161.279 55.9163 147.747C54.8233 141.428 54.2922 134.939 51.9445 128.966C49.5969 122.993 45.5019 117.42 39.7059 114.688" fill="#B8B8FF"/>
<path d="M39.7062 114.688C39.7062 114.688 40.1372 114.873 40.9377 115.296C42.0921 115.946 43.1823 116.703 44.1937 117.559C47.946 120.87 50.7713 125.101 52.3912 129.836C53.5334 133.158 54.3581 136.58 54.8543 140.058L55.7703 145.916C56.0936 147.924 56.4708 150.01 56.794 152.173C58.1257 160.794 59.2648 170.485 60.2963 180.953L60.073 180.784L67.9396 179.452L68.2321 179.406L68.1628 179.691L65.0455 192.822C64.4759 195.07 64.0602 197.372 63.506 199.688C62.9518 202.005 62.4823 204.307 61.9281 206.677C61.2122 209.756 60.4579 212.766 59.6189 215.729C59.2033 217.215 58.7722 218.685 58.2873 220.125C58.0333 220.848 57.787 221.564 57.5176 222.264C57.3713 222.618 57.202 222.965 57.0249 223.303C56.9327 223.478 56.8272 223.645 56.7094 223.804L56.5323 224.042L56.2706 224.258C55.5355 224.546 54.7306 224.605 53.9614 224.427C53.2218 224.316 52.4893 224.162 51.7677 223.965C50.3361 223.588 48.9429 223.126 47.5728 222.634C44.8325 221.649 42.1847 220.563 39.6292 219.424L37.7973 217.477L37.9358 217.531H34.2873C31.9412 216.909 29.8857 215.488 28.4759 213.513C27.7662 212.603 27.1231 211.644 26.5516 210.642C25.9897 209.649 25.4894 208.648 24.966 207.67C23.0814 203.897 21.5358 199.964 20.3477 195.917C19.2664 192.32 18.4002 188.663 17.7537 184.964C17.1995 181.538 16.8146 178.359 16.5683 175.481C16.0603 169.708 15.9833 165.12 15.9448 161.987C15.9448 160.448 15.9448 159.216 15.9448 158.4C15.9448 158.008 15.9448 157.7 15.9448 157.477C15.9383 157.374 15.9383 157.271 15.9448 157.169C15.9448 157.169 15.9448 157.277 15.9448 157.477C15.9448 157.677 15.9448 158.008 15.9448 158.4C15.9448 159.216 15.9448 160.425 16.0141 161.987C16.0911 165.12 16.1988 169.685 16.7454 175.457C17.0071 178.336 17.4073 181.5 17.9769 184.917C18.6107 188.582 19.4614 192.206 20.5247 195.77C21.7175 199.794 23.2629 203.703 25.143 207.455C25.6664 208.425 26.1668 209.425 26.721 210.403C27.2857 211.389 27.9211 212.333 28.6222 213.228C29.9888 215.123 31.9728 216.484 34.2335 217.076H37.8819L37.9358 217.13L39.7677 219.078L39.7139 219.032C42.2617 220.163 44.9018 221.248 47.6266 222.226C48.989 222.711 50.3745 223.165 51.7908 223.542C52.5006 223.732 53.2201 223.883 53.9461 223.996C54.6288 224.152 55.342 224.11 56.0012 223.873L56.1782 223.735L56.3322 223.527C56.435 223.378 56.5301 223.224 56.617 223.065C56.7905 222.74 56.9472 222.406 57.0865 222.064C57.3867 221.379 57.633 220.671 57.8562 219.955C58.3412 218.523 58.7722 217.061 59.1802 215.575C60.0038 212.62 60.7196 209.602 61.4893 206.539C62.0435 204.23 62.567 201.867 63.075 199.558C63.583 197.248 64.014 194.939 64.5759 192.692C65.6535 188.189 66.7004 183.794 67.7087 179.552L67.9242 179.791L60.0654 181.115H59.8652V180.915C58.8492 170.454 57.7254 160.756 56.4246 152.143C54.8851 143.576 54.3232 135.832 52.1141 129.821C50.529 125.105 47.7531 120.879 44.0551 117.551C43.0594 116.687 41.9877 115.914 40.8531 115.242C40.4605 115.011 40.1526 114.865 39.9525 114.749L39.7062 114.688Z" fill="#263238"/>
<path d="M37.8817 217.292C37.8597 217.139 37.8597 216.983 37.8817 216.83C37.8817 216.53 37.9433 216.06 38.0049 215.522C38.1204 214.39 38.3282 212.751 38.6515 210.734C38.9747 208.717 39.4212 206.323 40.0677 203.699C40.7271 200.829 41.7217 198.046 43.0312 195.409C43.7802 194.074 44.6788 192.83 45.7098 191.699C46.6505 190.635 47.6556 189.63 48.7194 188.689C50.5184 187.107 52.4185 185.644 54.4077 184.309C56.1011 183.17 57.5251 182.331 58.5257 181.769C59.0183 181.492 59.4109 181.284 59.6803 181.146C59.8132 181.067 59.9554 181.005 60.1036 180.961C59.9811 181.056 59.8526 181.144 59.7188 181.223L58.6027 181.908C57.6328 182.508 56.2319 183.378 54.5693 184.548C52.6132 185.905 50.7419 187.381 48.9657 188.966C47.9209 189.906 46.9314 190.906 46.0023 191.96C44.9963 193.074 44.1161 194.295 43.3775 195.601C42.0859 198.21 41.0968 200.958 40.4295 203.791C39.7599 206.393 39.2903 208.779 38.8901 210.78C38.4898 212.781 38.2897 214.413 38.1203 215.545C38.0434 216.076 37.9741 216.499 37.9279 216.846C37.9261 216.995 37.9107 217.145 37.8817 217.292Z" fill="#263238"/>
<path d="M60.1115 180.976C59.9868 181.03 59.8582 181.074 59.7267 181.107L58.6106 181.4C58.1179 181.523 57.5253 181.677 56.8402 181.885C56.1551 182.093 55.3777 182.285 54.531 182.57C52.8146 183.085 50.8056 183.801 48.6119 184.686C46.2423 185.664 43.9294 186.774 41.6844 188.012C39.4518 189.274 37.3071 190.686 35.2649 192.237C34.3566 193.007 33.456 193.677 32.694 194.408L31.5779 195.432L30.6003 196.44C29.9615 197.071 29.4458 197.702 28.9839 198.241L28.3374 199.011L27.837 199.681L27.1366 200.597C27.0588 200.707 26.9684 200.808 26.8672 200.897C26.8672 200.897 26.9211 200.774 27.0673 200.55L27.7139 199.588C27.8601 199.373 28.0141 199.142 28.1911 198.896L28.8146 198.126C29.261 197.572 29.7613 196.925 30.354 196.279L31.3162 195.247L32.4323 194.193C33.202 193.423 34.0872 192.753 34.9955 191.983C37.0414 190.4 39.1998 188.967 41.4534 187.696C43.7146 186.446 46.0514 185.338 48.4502 184.379C50.6593 183.509 52.6914 182.839 54.4233 182.323C55.2854 182.062 56.0782 181.869 56.7709 181.692C57.4637 181.515 58.064 181.377 58.5567 181.284L59.6882 181.053C59.8242 181.005 59.9672 180.979 60.1115 180.976Z" fill="#263238"/>
<path d="M25.1582 148.132C25.2884 148.157 25.4134 148.204 25.5277 148.271L26.5591 148.748C27.4597 149.164 28.7374 149.795 30.3077 150.611C33.4481 152.22 37.7278 154.583 42.3153 157.423C46.9029 160.263 50.9131 163.05 53.7611 165.12C55.1851 166.167 56.3166 167.029 57.094 167.645L57.9792 168.361C58.0862 168.44 58.1843 168.53 58.2717 168.63C58.1463 168.579 58.0295 168.509 57.9253 168.422L57.0016 167.776L53.5918 165.351C50.713 163.319 46.6643 160.579 42.1075 157.738C37.5507 154.898 33.2788 152.512 30.1768 150.811L26.4898 148.84L25.4892 148.294C25.3728 148.254 25.2617 148.199 25.1582 148.132Z" fill="#263238"/>
<g opacity="0.3">
<path opacity="0.3" d="M34.8719 183.594C33.3978 184.296 32.181 185.443 31.3928 186.873C30.7231 188.343 31.031 190.367 32.4319 191.175C33.8328 191.983 35.657 191.499 37.0502 190.69C40.78 188.411 44.6346 186.342 48.5961 184.494C52.1137 182.955 56.0008 182.023 60.1419 180.976C51.5826 179.991 42.369 179.414 34.8719 183.594Z" fill="black"/>
</g>
<path d="M77.5917 6.00297C68.355 5.87981 59.0183 9.58988 52.8451 16.4404C46.6719 23.2909 43.9394 33.2896 46.3948 42.1876L102.839 15.9324C95.811 9.91316 86.8283 6.12613 77.5917 6.00297Z" fill="#B8B8FF"/>
<path d="M71.5417 11.9914C71.5417 11.9914 19.9703 23.5372 31.978 63.1318C41.7919 95.4602 109.312 87.863 121.712 67.6347C121.712 67.6347 136.683 47.7989 126.754 29.2409C116.825 10.6829 92.0318 6.85734 71.5417 11.9914Z" fill="#B8B8FF"/>
<g opacity="0.3">
<path opacity="0.3" d="M98.2049 23.3217C84.2421 20.0273 69.0247 23.9914 57.6405 32.7123C46.2563 41.4333 42.1844 60.1838 38.8823 74.1234C38.8823 74.1234 47.8958 85.1074 74.405 85.5769C107.457 86.1542 118.972 72.8534 124.106 63.863C125.752 60.9794 127.109 57.9395 128.155 54.788C124.545 40.933 112.168 26.6315 98.2049 23.3217Z" fill="black"/>
</g>
<path d="M95.48 10.3981C95.2725 10.4149 95.064 10.4149 94.8565 10.3981L93.0708 10.298L91.7776 10.2133C91.3081 10.2133 90.7924 10.2133 90.2382 10.2133C89.1375 10.2133 87.8829 10.1441 86.4974 10.2133L84.319 10.2903C83.5493 10.2903 82.7796 10.4212 81.9714 10.4827C80.3396 10.5905 78.6231 10.8599 76.8065 11.1139C72.8939 11.7712 69.0349 12.7154 65.2607 13.9388C61.4999 15.2246 57.8433 16.7968 54.3229 18.6418C52.7296 19.5501 51.1902 20.366 49.8354 21.282C49.1581 21.7284 48.4807 22.1287 47.865 22.5674L46.1023 23.8451C44.9554 24.6149 44.0163 25.4615 43.1542 26.1543C42.7309 26.5084 42.3229 26.824 41.9689 27.1318L41.0144 28.0016L39.6905 29.2024C39.5428 29.3496 39.3803 29.4812 39.2056 29.595C39.337 29.4348 39.4784 29.2832 39.6289 29.1408L40.9066 27.8862L41.838 26.9856C42.1921 26.67 42.6077 26.3467 43.008 25.985C43.8624 25.2768 44.7937 24.4455 45.9329 23.6219L47.6879 22.3211C48.3037 21.8746 48.981 21.4667 49.6584 21.0126C51.0054 20.0812 52.5449 19.2422 54.1459 18.3262C57.6744 16.4501 61.3475 14.8594 65.1298 13.5693C68.9302 12.3313 72.8214 11.3919 76.768 10.7598C78.5923 10.5135 80.3242 10.2518 81.956 10.1595C82.7719 10.1056 83.557 10.0132 84.319 9.99012L86.505 9.93624C87.8982 9.86696 89.1529 9.93623 90.2613 9.98242C90.8078 9.98242 91.3235 9.98242 91.8007 10.0363L93.0862 10.1518L94.8719 10.3288C95.0763 10.3338 95.2798 10.357 95.48 10.3981Z" fill="black"/>
<path d="M120.927 97.9079C119.734 94.9368 121.235 89.441 121.389 86.2389C121.947 74.7655 120.838 63.2717 118.094 52.1171C116.555 45.7977 114.415 39.5013 110.597 34.2364C106.78 28.9715 99.2209 23.5296 92.7552 22.7906L88.2292 82.3364C88.0214 86.5776 88.0599 90.9342 89.4915 94.9368L96.7115 94.8906L103.2 100.456C103.2 100.456 119.003 107.168 122.382 110.216C122.799 110.62 123.171 111.069 123.49 111.555C123.46 106.889 122.592 102.267 120.927 97.9079Z" fill="#263238"/>
<path d="M55.3316 42.9035C55.0156 40.1604 55.682 37.394 57.2123 35.0957C58.7427 32.7973 61.0381 31.1157 63.6908 30.3493L84.3271 24.3686C93.6869 22.475 104.802 30.9882 106.295 40.4173C107.958 50.9009 109.566 63.763 109.066 71.745C108.042 87.8014 96.1115 90.9881 96.1115 90.9881L99.4676 112.941L91.5933 163.088L63.8448 114.087L55.3316 42.9035Z" fill="#FFBE9D"/>
<path d="M102.839 52.3865C102.892 52.9144 102.737 53.4422 102.409 53.8586C102.08 54.275 101.602 54.5475 101.076 54.6187C100.82 54.6625 100.558 54.655 100.305 54.5964C100.052 54.5378 99.8132 54.4294 99.6025 54.2775C99.3918 54.1256 99.2135 53.9332 99.078 53.7116C98.9425 53.49 98.8526 53.2436 98.8133 52.9868C98.7567 52.4581 98.9095 51.9283 99.239 51.511C99.5686 51.0936 100.049 50.8221 100.576 50.7546C100.832 50.7097 101.095 50.7165 101.348 50.7746C101.602 50.8327 101.841 50.9411 102.052 51.0932C102.263 51.2452 102.441 51.438 102.576 51.6602C102.711 51.8823 102.801 52.1292 102.839 52.3865Z" fill="#263238"/>
<path d="M103.585 47.4526C103.362 47.7451 101.715 46.7521 99.5367 46.96C97.3584 47.1678 95.8575 48.4147 95.5958 48.1761C95.4649 48.0684 95.6727 47.5603 96.327 46.9907C97.2104 46.2477 98.3019 45.796 99.4521 45.6976C100.586 45.586 101.726 45.8367 102.708 46.4135C103.424 46.8676 103.701 47.3294 103.585 47.4526Z" fill="#263238"/>
<path d="M82.9797 54.3416C83.0344 54.8699 82.8808 55.3987 82.5516 55.8156C82.2224 56.2324 81.7437 56.5044 81.217 56.5738C80.9605 56.6188 80.6975 56.6121 80.4436 56.554C80.1896 56.496 79.9498 56.3877 79.7383 56.2357C79.5268 56.0837 79.3477 55.891 79.2117 55.6688C79.0758 55.4466 78.9855 55.1995 78.9464 54.942C78.8917 54.4136 79.0453 53.8848 79.3745 53.468C79.7037 53.0511 80.1824 52.7791 80.709 52.7098C80.9657 52.6637 81.229 52.6696 81.4834 52.7272C81.7378 52.7848 81.978 52.8929 82.1897 53.0451C82.4015 53.1973 82.5806 53.3905 82.7163 53.6132C82.852 53.8359 82.9416 54.0836 82.9797 54.3416Z" fill="#263238"/>
<path d="M82.1641 49.8849C81.9409 50.1774 80.2937 49.1844 78.1154 49.3922C75.937 49.6001 74.4361 50.847 74.1744 50.6084C74.0435 50.5006 74.2514 49.9926 74.9056 49.423C75.789 48.68 76.8806 48.2283 78.0307 48.1299C79.1644 48.0183 80.3043 48.2689 81.2866 48.8457C82.0025 49.2999 82.2796 49.7617 82.1641 49.8849Z" fill="#263238"/>
<path d="M91.6161 65.3332C91.6161 65.2101 92.9324 64.8483 95.103 64.3557C95.6572 64.2479 96.1729 64.0863 96.2268 63.6937C96.2248 63.1135 96.0419 62.5485 95.7034 62.0773L93.6559 57.9593C90.7925 52.1325 88.6681 47.3217 88.899 47.1831C89.1299 47.0446 91.6469 51.7014 94.5103 57.5282C95.1928 58.9702 95.8522 60.3428 96.4885 61.6462C96.9014 62.2871 97.0758 63.0527 96.9811 63.8092C96.9201 64.0138 96.8126 64.2015 96.6671 64.3577C96.5215 64.5139 96.3419 64.6344 96.1421 64.7097C95.8424 64.8235 95.5294 64.8985 95.2107 64.933C92.9862 65.3101 91.6392 65.4564 91.6161 65.3332Z" fill="#263238"/>
<path d="M96.1036 91.0035C88.4911 91.841 80.7944 90.5848 73.8433 87.3704C73.8433 87.3704 80.4783 97.8848 96.7117 94.8906L96.1036 91.0035Z" fill="#EB996E"/>
<path d="M91.1929 70.6751C90.7274 70.1927 90.147 69.8365 89.5061 69.64C88.8652 69.4434 88.1849 69.4129 87.529 69.5513C87.0534 69.6372 86.5998 69.8177 86.1952 70.0821C85.7906 70.3465 85.4432 70.6895 85.1737 71.0908C84.919 71.4827 84.7892 71.9428 84.8016 72.4101C84.814 72.8773 84.9679 73.3299 85.2429 73.7078C85.6305 74.0678 86.117 74.3034 86.6397 74.3843C87.1624 74.4653 87.6973 74.3878 88.1756 74.162C89.1726 73.7024 90.0676 73.0481 90.8081 72.2376C91.0371 72.0379 91.2275 71.7979 91.3699 71.5295C91.4262 71.4058 91.4487 71.2695 91.4352 71.1343C91.4216 70.9991 91.3726 70.8699 91.293 70.7598" fill="#EB996E"/>
<path d="M85.3348 67.45C85.6889 67.3884 85.9121 69.7591 88.1059 71.2524C90.2996 72.7456 92.7858 72.2453 92.8396 72.5763C92.8858 72.7149 92.3162 73.0843 91.254 73.2152C89.8669 73.3691 88.4703 73.0254 87.313 72.2453C86.2037 71.4992 85.4281 70.3509 85.1501 69.0433C84.9654 68.058 85.1732 67.45 85.3348 67.45Z" fill="#263238"/>
<path d="M82.0714 43.6732C81.9174 44.289 79.7083 44.212 77.1759 44.7662C74.6435 45.3204 72.6423 46.2056 72.2497 45.7053C72.0727 45.4667 72.3805 44.874 73.1657 44.2197C74.2158 43.4153 75.4344 42.8589 76.7301 42.5923C78.0257 42.3257 79.365 42.3558 80.6474 42.6802C81.6249 42.965 82.1406 43.3884 82.0714 43.6732Z" fill="#263238"/>
<path d="M102.816 39.9785C102.477 40.5097 100.922 40.1325 99.1132 40.2787C97.3044 40.425 95.8034 40.9253 95.4032 40.4404C95.2261 40.2095 95.4032 39.6707 96.042 39.155C96.8888 38.5087 97.9082 38.1279 98.9714 38.0608C100.035 37.9936 101.094 38.2432 102.015 38.7778C102.7 39.2242 102.993 39.7168 102.816 39.9785Z" fill="#263238"/>
<path d="M112.052 41.2871C108.511 35.5372 104.848 29.6565 99.5057 25.5308C94.1638 21.4051 86.6898 19.3269 80.5397 22.0979L80.1934 22.9908C82.0561 25.9234 83.9573 28.9022 86.6206 31.119C89.2838 33.3358 92.9015 34.7059 96.2729 33.8592L94.2331 30.8881C99.388 35.5518 105.456 39.0931 112.052 41.2871Z" fill="#263238"/>
<path d="M38.9595 105.259C43.7797 102.463 48.7812 99.9916 53.9306 97.8617L60.0884 92.6892L65.7304 113.957C67.1042 113.63 68.3467 112.894 69.2943 111.848C70.8722 109.916 70.7028 107.145 70.4642 104.666C68.2087 81.1331 67.4375 57.4814 68.1551 33.8515L51.6907 42.3724C48.9967 52.5866 50.7208 60.3685 49.9665 70.906C49.243 80.9817 41.1994 91.8886 38.9595 105.259Z" fill="#263238"/>
<path d="M82.8874 22.3519C82.3794 31.4577 77.253 40.0555 71.3416 46.983C65.4301 53.9105 58.0253 59.4294 50.7284 64.8868C49.0966 57.0048 49.2813 48.6225 52.1524 41.0946C55.0234 33.5667 60.7271 26.9856 68.1626 23.8913C72.8197 21.969 77.9334 21.4344 82.8874 22.3519Z" fill="#263238"/>
<path d="M78.8928 122.724C77.3148 116.404 74.7824 110.231 74.6285 103.727C74.4746 97.2228 76.6914 90.9342 76.599 84.4839C76.5143 78.8726 74.7055 73.4538 72.8889 68.1504C71.0724 62.847 69.2251 57.4358 69.0403 51.8323C68.8556 46.2287 70.6721 40.2864 75.0211 36.738L55.5471 46.7444C51.6369 63.255 54.4772 81.0048 49.1815 97.1305C47.7421 101.495 45.6946 105.921 46.2719 110.485C47.0416 116.474 53.769 120.576 53.9691 126.649C54.0461 129.236 54.3617 135.024 55.8011 137.187C56.7555 138.634 60.0269 137.664 61.6664 138.234C68.109 140.466 70.626 141.313 77.4303 141.667C80.9787 136.171 80.4784 129.035 78.8928 122.724Z" fill="#263238"/>
<path d="M34.6179 108.946C34.5837 108.881 34.5528 108.814 34.5256 108.746L34.2793 108.161C34.1715 107.899 34.0868 107.56 33.9637 107.168C33.8576 106.706 33.778 106.238 33.7251 105.767C33.5098 102.736 34.1357 99.7048 35.5339 97.0073C36.4513 95.1394 37.525 93.3524 38.7436 91.6654C40.006 89.8181 41.43 87.9015 42.7231 85.7617C44.1125 83.548 45.1001 81.1065 45.6404 78.5494C46.139 75.7874 46.3326 72.979 46.2176 70.1748C46.1792 67.2806 46.0098 64.4403 46.1484 61.7078C46.2589 59.0693 46.5806 56.4438 47.1105 53.8567C48.0242 49.4802 49.5178 45.2453 51.5518 41.264C52.9174 38.5851 54.5333 36.0414 56.378 33.6668C57.0169 32.8201 57.5711 32.1967 57.9174 31.781C58.0868 31.5809 58.2253 31.4269 58.3408 31.3038C58.4562 31.1806 58.487 31.1421 58.4947 31.1498L58.3716 31.3269L57.979 31.8272C57.6249 32.2659 57.1015 32.8971 56.4781 33.7592C52.0208 39.7378 48.9378 46.6264 47.4492 53.9336C46.9335 56.5015 46.6221 59.1062 46.5179 61.7232C46.387 64.4403 46.5179 67.2729 46.5948 70.1902C46.7113 73.0257 46.5125 75.8655 46.0021 78.6571C45.4462 81.2542 44.4351 83.7324 43.0156 85.9772C41.7071 88.1324 40.2677 90.049 38.99 91.8733C37.7756 93.5444 36.6971 95.3102 35.7648 97.1536C34.3667 99.8039 33.7074 102.782 33.8559 105.774C33.9781 106.859 34.234 107.924 34.6179 108.946Z" fill="#263238"/>
<path d="M121.535 105.059C122.351 104.566 123.124 104.005 123.844 103.381C125.742 101.565 127.096 99.2571 127.755 96.7149C128.709 93.5359 128.594 89.4795 127.501 85.2383C126.917 83.0131 126.221 80.8191 125.415 78.6648L122.89 71.6911C119.449 62.1312 116.332 53.4795 114.069 47.1832C112.968 44.0658 112.068 41.5334 111.436 39.7399L110.744 37.7079C110.674 37.5001 110.613 37.323 110.567 37.1768C110.521 37.0305 110.521 36.9997 110.521 36.992C110.557 37.0466 110.586 37.1063 110.605 37.1691C110.667 37.3076 110.736 37.477 110.813 37.6848C111.005 38.1697 111.259 38.8394 111.583 39.6861L114.331 47.0831C116.64 53.3717 119.78 62.008 123.267 71.5526C124.129 73.9464 124.976 76.2787 125.784 78.534C126.589 80.7003 127.28 82.9073 127.855 85.1459C128.948 89.4256 129.04 93.6129 128.032 96.7995C127.335 99.3756 125.917 101.699 123.944 103.496C123.399 103.966 122.809 104.381 122.182 104.735L121.681 104.982C121.597 105.043 121.535 105.066 121.535 105.059Z" fill="#263238"/>
</g>
</svg>
