<svg width="16" height="14" viewBox="0 0 16 14" fill="none" xmlns="http://www.w3.org/2000/svg">
<path d="M0.888889 2.55725C0 2.55725 0 3.44614 0 3.44614V12.7795C0 12.7795 0 13.6684 0.888889 13.6684H15.1111C16 13.6684 16 12.7795 16 12.7795V3.44614C16 3.44614 16 2.55725 15.1111 2.55725H0.888889Z" fill="#5C913B"/>
<path d="M0.888889 0.335022C0 0.335022 0 1.22391 0 1.22391V10.1128C0 10.1128 0 11.0017 0.888889 11.0017H15.1111C16 11.0017 16 10.1128 16 10.1128V1.22391C16 1.22391 16 0.335022 15.1111 0.335022H0.888889Z" fill="#A7D28B"/>
<path d="M11.1106 8.55726C12.7061 8.55726 13.9995 7.26386 13.9995 5.66837C13.9995 4.07288 12.7061 2.77948 11.1106 2.77948C9.51508 2.77948 8.22168 4.07288 8.22168 5.66837C8.22168 7.26386 9.51508 8.55726 11.1106 8.55726Z" fill="#77B255"/>
<path d="M14.667 10.335H1.33366C0.966103 10.335 0.666992 10.0359 0.666992 9.66838V1.66838C0.666992 1.30082 0.966103 1.00171 1.33366 1.00171H14.667C15.0345 1.00171 15.3337 1.30082 15.3337 1.66838V9.66838C15.3337 10.0359 15.0345 10.335 14.667 10.335ZM1.33366 1.44615C1.21144 1.44615 1.11144 1.54571 1.11144 1.66838V9.66838C1.11144 9.7906 1.21144 9.8906 1.33366 9.8906H14.667C14.7892 9.8906 14.8892 9.7906 14.8892 9.66838V1.66838C14.8892 1.54571 14.7892 1.44615 14.667 1.44615H1.33366Z" fill="#5C913B"/>
<path d="M6.22266 0.335022H9.77821V11.0292H6.22266V0.335022Z" fill="#FFE8B6"/>
<path d="M6.22266 11.0017H9.77821V13.6684H6.22266V11.0017Z" fill="#FFAC33"/>
<path d="M5.24897 6.56746C5.24897 5.24346 2.80764 5.32968 2.80764 4.53012C2.80764 4.14301 3.17786 3.95412 3.60719 3.95412C4.32942 3.95412 4.45786 4.41812 4.78497 4.41812C5.01653 4.41812 5.12808 4.27235 5.12808 4.10879C5.12808 3.72835 4.55208 3.44124 3.99964 3.34168V2.97501C3.99964 2.74612 3.8143 2.56079 3.58542 2.56079C3.35653 2.56079 3.17119 2.74657 3.17119 2.97501V3.35412C2.56942 3.4919 2.05075 3.90968 2.05075 4.59012C2.05075 5.86212 4.49208 5.81057 4.49208 6.70479C4.49208 7.01368 4.15697 7.32301 3.60675 7.32301C2.78142 7.32301 2.5063 6.76435 2.17164 6.76435C2.00808 6.76435 1.8623 6.90168 1.8623 7.10879C1.8623 7.43812 2.41342 7.83368 3.17208 7.94479L3.17164 7.94657V8.36168C3.17164 8.59012 3.35742 8.7759 3.5863 8.7759C3.81475 8.77546 4.00008 8.58968 4.00008 8.36168V7.94657C4.00008 7.94212 3.99786 7.93812 3.99742 7.93412C4.67964 7.80657 5.24897 7.36257 5.24897 6.56746Z" fill="#5C913B"/>
</svg>
