<svg width="16" height="16" viewBox="0 0 16 16" fill="none" xmlns="http://www.w3.org/2000/svg">
<path d="M12.1522 4.30126C12.0362 4.30126 11.9203 4.25688 11.832 4.16858C11.655 3.99152 11.655 3.70533 11.832 3.52827C11.832 3.52827 15.8179 -0.170476 15.9945 0.00612885C16.1715 0.183187 12.4723 4.16858 12.4723 4.16858C12.384 4.25688 12.2681 4.30126 12.1522 4.30126Z" fill="#E7E7E9"/>
<path d="M12.953 4.9692C12.6876 5.23456 12.2574 5.2341 11.9925 4.9692L11.032 4.00873C10.7667 3.74337 10.7667 3.31318 11.032 3.04782C11.2969 2.78246 12.7605 2.25672 13.0259 2.52208L13.4787 2.97491C13.7441 3.23982 13.2183 4.70384 12.953 4.9692Z" fill="#E7E7E9"/>
<path d="M7.80122 11.4003C7.44756 11.754 6.87427 11.754 6.52061 11.4003L4.59923 9.47937C4.24557 9.12571 4.24557 8.55197 4.59923 8.1983L10.0428 2.75524C10.3964 2.40157 10.9702 2.40157 11.3234 2.75524L13.2447 4.67661C13.5984 5.03028 13.5984 5.60356 13.2447 5.95768L7.80122 11.4003Z" fill="#E7E7E9"/>
<path d="M4.60021 9.47937C4.24655 9.12571 4.24655 8.55197 4.60021 8.1983L10.0433 2.75524C10.3969 2.40157 10.9707 2.40157 11.3239 2.75524L4.60021 9.47937Z" fill="#E7E7E9"/>
<path d="M3.18557 14.7355L1.26465 12.8141L6.59768 7.48108L8.51905 9.40155L3.18557 14.7355Z" fill="#E7E7E9"/>
<path d="M3.40129 15.801C3.13639 16.0663 2.70574 16.0663 2.44038 15.801L0.198851 13.5595C-0.06651 13.2941 -0.0660571 12.8644 0.198851 12.599C0.463759 12.3336 0.894404 12.3336 1.15976 12.599L3.40129 14.8405C3.66665 15.1054 3.66665 15.5356 3.40129 15.801ZM7.96179 12.5211C7.69688 12.7865 7.26623 12.7865 7.00132 12.5211L3.47918 8.99941C3.21382 8.73405 3.21427 8.30386 3.47918 8.0385C3.74409 7.77314 4.17473 7.77314 4.44009 8.0385L7.96224 11.5606C8.22715 11.826 8.22715 12.2562 7.96179 12.5211Z" fill="#E7E7E9"/>
<path d="M6.3781 6.41962L5.90625 6.89147L5.92436 6.90958L9.11005 10.0953L9.5819 9.62342L6.3781 6.41962Z" fill="#E7E7E9"/>
<path d="M6.3781 6.41964L5.90625 6.89149L5.92436 6.90961L6.54656 7.5318L7.01841 7.05995L6.3781 6.41964ZM10.1326 7.92894C10.0021 8.05935 10.0021 8.27037 10.1326 8.40079L10.4686 8.73679L10.9404 8.26494L10.6044 7.92894C10.474 7.79852 10.263 7.79852 10.1326 7.92894ZM10.9816 7.07987C10.8512 7.21029 10.8512 7.42131 10.9816 7.55173L11.3176 7.88773L11.7895 7.41587L11.4535 7.07987C11.3231 6.94946 11.112 6.94946 10.9816 7.07987ZM12.3025 6.23081C12.1721 6.10039 11.9606 6.10039 11.8307 6.23081C11.7003 6.36122 11.7003 6.57225 11.8307 6.70266L12.1667 7.03866L12.6385 6.56681L12.3025 6.23081Z" fill="#E7E7E9"/>
</svg>
