<svg width="39" height="32" viewBox="0 0 39 32" fill="none" xmlns="http://www.w3.org/2000/svg">
<path d="M19.1062 4.14001L7.77213 15.4741C6.01005 17.015 3.53307 17.2975 1.50735 16.3252C1.41459 16.1701 1.32653 16.0128 1.24372 15.8535C1.12422 15.6313 1.01416 15.4059 0.914578 15.1779L0.910385 15.1706C-0.8213 11.2491 -0.0833427 6.49959 3.13107 3.28518C5.21915 1.19709 7.95505 0.153576 10.6904 0.153576C13.1438 0.153576 15.5967 0.99164 17.5826 2.67091C17.8121 2.86326 18.0344 3.06872 18.2513 3.28518L19.1062 4.14001Z" fill="#A3A3FF"/>
<path d="M19.1056 31.5723C18.6376 31.5723 18.1711 31.511 17.7204 31.3894C16.8268 31.1499 16.0049 30.674 15.3446 30.0131L3.43346 18.102C3.13472 17.8033 2.85484 17.4872 2.59592 17.156C3.05453 17.2624 3.52571 17.3169 3.99584 17.3169C5.49062 17.3169 6.93142 16.7765 8.05356 15.7954C8.0609 15.7891 8.06771 15.7828 8.07452 15.776L20.5401 3.31036C22.3724 1.47804 24.895 0.427711 27.4611 0.427711C28.731 0.427711 29.9664 0.676667 31.132 1.16724C33.2374 2.05405 34.9644 3.46497 36.1263 5.24645C37.2118 6.91052 37.7852 8.84556 37.7852 10.8435C37.7852 13.5867 36.7175 16.1643 34.7788 18.1015L22.8677 30.0131C21.8625 31.0184 20.5265 31.5723 19.1056 31.5723Z" fill="#CCCCFF"/>
<path d="M27.4616 0.85536C28.6744 0.85536 29.8537 1.09279 30.9659 1.56135C32.9921 2.41513 34.6531 3.7705 35.7684 5.48017C36.8082 7.07454 37.3575 8.92887 37.3575 10.844C37.3575 13.473 36.3344 15.9431 34.4764 17.8001L22.5653 29.7107C21.6408 30.6352 20.4123 31.1441 19.1056 31.1441C18.6748 31.1441 18.2461 31.0875 17.8305 30.9759C17.0092 30.7557 16.2539 30.3181 15.6465 29.7107L3.73589 17.7996C3.71492 17.7786 3.69448 17.7576 3.67352 17.7367C3.78096 17.7419 3.88841 17.7445 3.99637 17.7445C5.59493 17.7445 7.13584 17.1664 8.33554 16.1171C8.34969 16.1046 8.36385 16.0915 8.37747 16.0784L20.8431 3.61274C21.7267 2.72908 22.7593 2.03934 23.9123 1.56292C25.0486 1.09383 26.2431 0.85536 27.4616 0.85536ZM27.4616 0C24.8065 0 22.1885 1.05767 20.2383 3.00791L7.77212 15.474C6.69243 16.4185 5.3444 16.8897 3.99585 16.8897C3.14363 16.8897 2.29142 16.7015 1.50734 16.3247C1.95074 17.0658 2.49216 17.766 3.13106 18.4044L15.0422 30.3155C15.7806 31.054 16.6685 31.5498 17.6093 31.8024C18.0988 31.934 18.6025 32 19.1056 32C20.5768 32 22.0475 31.4381 23.1696 30.316L35.0807 18.4049C37.1693 16.3179 38.2129 13.5809 38.2129 10.844C38.2129 6.77998 35.9094 2.71598 31.2982 0.773073C30.0586 0.251576 28.7557 0 27.4616 0Z" fill="#A3A3FF"/>
<path d="M27.7541 21.4306L18.0946 31.0912C17.1847 30.8469 16.3262 30.3674 15.6119 29.6535L6.75218 20.7938L16.9353 10.6123C17.473 10.0735 18.3457 10.0735 18.8845 10.6123L27.7541 19.4815C28.2929 20.0202 28.2929 20.8929 27.7541 21.4306Z" fill="#B8B8FF"/>
<path d="M13.0558 8.97971C13.3527 8.97971 13.5935 8.73895 13.5935 8.44197C13.5935 8.14498 13.3527 7.90422 13.0558 7.90422C12.7588 7.90422 12.518 8.14498 12.518 8.44197C12.518 8.73895 12.7588 8.97971 13.0558 8.97971Z" fill="white"/>
<path d="M11.0285 11.0075C11.3255 11.0075 11.5662 10.7668 11.5662 10.4698C11.5662 10.1728 11.3255 9.93203 11.0285 9.93203C10.7315 9.93203 10.4907 10.1728 10.4907 10.4698C10.4907 10.7668 10.7315 11.0075 11.0285 11.0075Z" fill="white"/>
<path d="M9.00118 13.0348C9.29817 13.0348 9.53893 12.794 9.53893 12.497C9.53893 12.2001 9.29817 11.9593 9.00118 11.9593C8.7042 11.9593 8.46344 12.2001 8.46344 12.497C8.46344 12.794 8.7042 13.0348 9.00118 13.0348Z" fill="white"/>
<path d="M12.5489 6.44562C12.8459 6.44562 13.0867 6.20486 13.0867 5.90787C13.0867 5.61088 12.8459 5.37012 12.5489 5.37012C12.2519 5.37012 12.0112 5.61088 12.0112 5.90787C12.0112 6.20486 12.2519 6.44562 12.5489 6.44562Z" fill="white"/>
<path d="M10.5216 8.47288C10.8186 8.47288 11.0594 8.23213 11.0594 7.93514C11.0594 7.63815 10.8186 7.3974 10.5216 7.3974C10.2247 7.3974 9.98389 7.63815 9.98389 7.93514C9.98389 8.23213 10.2247 8.47288 10.5216 8.47288Z" fill="white"/>
<path d="M8.49436 10.5007C8.79135 10.5007 9.03211 10.2599 9.03211 9.96295C9.03211 9.66596 8.79135 9.42521 8.49436 9.42521C8.19738 9.42521 7.95662 9.66596 7.95662 9.96295C7.95662 10.2599 8.19738 10.5007 8.49436 10.5007Z" fill="white"/>
<path d="M6.4671 12.528C6.76408 12.528 7.00484 12.2872 7.00484 11.9903C7.00484 11.6933 6.76408 11.4525 6.4671 11.4525C6.17011 11.4525 5.92935 11.6933 5.92935 11.9903C5.92935 12.2872 6.17011 12.528 6.4671 12.528Z" fill="white"/>
<path d="M10.0148 5.9388C10.3118 5.9388 10.5526 5.69804 10.5526 5.40106C10.5526 5.10407 10.3118 4.86331 10.0148 4.86331C9.71784 4.86331 9.47709 5.10407 9.47709 5.40106C9.47709 5.69804 9.71784 5.9388 10.0148 5.9388Z" fill="white"/>
<path d="M7.98754 7.96607C8.28452 7.96607 8.52528 7.72532 8.52528 7.42833C8.52528 7.13134 8.28452 6.89058 7.98754 6.89058C7.69055 6.89058 7.44979 7.13134 7.44979 7.42833C7.44979 7.72532 7.69055 7.96607 7.98754 7.96607Z" fill="white"/>
<path d="M5.96026 9.99388C6.25725 9.99388 6.49801 9.75313 6.49801 9.45614C6.49801 9.15915 6.25725 8.91839 5.96026 8.91839C5.66327 8.91839 5.42252 9.15915 5.42252 9.45614C5.42252 9.75313 5.66327 9.99388 5.96026 9.99388Z" fill="white"/>
<path d="M29.1018 16.1088C29.3987 16.1088 29.6395 15.8681 29.6395 15.5711C29.6395 15.2741 29.3987 15.0334 29.1018 15.0334C28.8048 15.0334 28.564 15.2741 28.564 15.5711C28.564 15.8681 28.8048 16.1088 29.1018 16.1088Z" fill="white"/>
<path d="M27.0745 14.081C27.3715 14.081 27.6122 13.8403 27.6122 13.5433C27.6122 13.2463 27.3715 13.0055 27.0745 13.0055C26.7775 13.0055 26.5367 13.2463 26.5367 13.5433C26.5367 13.8403 26.7775 14.081 27.0745 14.081Z" fill="white"/>
<path d="M25.0467 12.0537C25.3437 12.0537 25.5844 11.813 25.5844 11.516C25.5844 11.219 25.3437 10.9782 25.0467 10.9782C24.7497 10.9782 24.5089 11.219 24.5089 11.516C24.5089 11.813 24.7497 12.0537 25.0467 12.0537Z" fill="white"/>
<path d="M23.0194 10.0265C23.3163 10.0265 23.5571 9.78574 23.5571 9.48875C23.5571 9.19176 23.3163 8.951 23.0194 8.951C22.7224 8.951 22.4816 9.19176 22.4816 9.48875C22.4816 9.78574 22.7224 10.0265 23.0194 10.0265Z" fill="white"/>
<path d="M29.6086 13.5742C29.9056 13.5742 30.1463 13.3335 30.1463 13.0365C30.1463 12.7395 29.9056 12.4987 29.6086 12.4987C29.3116 12.4987 29.0708 12.7395 29.0708 13.0365C29.0708 13.3335 29.3116 13.5742 29.6086 13.5742Z" fill="white"/>
<path d="M27.5813 11.5469C27.8783 11.5469 28.119 11.3062 28.119 11.0092C28.119 10.7122 27.8783 10.4714 27.5813 10.4714C27.2843 10.4714 27.0435 10.7122 27.0435 11.0092C27.0435 11.3062 27.2843 11.5469 27.5813 11.5469Z" fill="white"/>
<path d="M25.554 9.51966C25.851 9.51966 26.0917 9.2789 26.0917 8.98191C26.0917 8.68493 25.851 8.44417 25.554 8.44417C25.257 8.44417 25.0163 8.68493 25.0163 8.98191C25.0163 9.2789 25.257 9.51966 25.554 9.51966Z" fill="white"/>
<path d="M32.1427 13.0674C32.4397 13.0674 32.6804 12.8267 32.6804 12.5297C32.6804 12.2327 32.4397 11.9919 32.1427 11.9919C31.8457 11.9919 31.6049 12.2327 31.6049 12.5297C31.6049 12.8267 31.8457 13.0674 32.1427 13.0674Z" fill="white"/>
<path d="M30.1154 11.0401C30.4124 11.0401 30.6531 10.7994 30.6531 10.5024C30.6531 10.2054 30.4124 9.96465 30.1154 9.96465C29.8184 9.96465 29.5776 10.2054 29.5776 10.5024C29.5776 10.7994 29.8184 11.0401 30.1154 11.0401Z" fill="white"/>
<path d="M28.0881 9.01284C28.3851 9.01284 28.6259 8.77208 28.6259 8.47509C28.6259 8.17811 28.3851 7.93735 28.0881 7.93735C27.7911 7.93735 27.5504 8.17811 27.5504 8.47509C27.5504 8.77208 27.7911 9.01284 28.0881 9.01284Z" fill="white"/>
<path d="M26.0608 6.98555C26.3578 6.98555 26.5986 6.7448 26.5986 6.44781C26.5986 6.15082 26.3578 5.91006 26.0608 5.91006C25.7638 5.91006 25.5231 6.15082 25.5231 6.44781C25.5231 6.7448 25.7638 6.98555 26.0608 6.98555Z" fill="white"/>
<path d="M32.6495 10.5333C32.9465 10.5333 33.1872 10.2925 33.1872 9.99554C33.1872 9.69855 32.9465 9.45779 32.6495 9.45779C32.3525 9.45779 32.1117 9.69855 32.1117 9.99554C32.1117 10.2925 32.3525 10.5333 32.6495 10.5333Z" fill="white"/>
<path d="M30.6222 8.50601C30.9192 8.50601 31.1599 8.26526 31.1599 7.96827C31.1599 7.67128 30.9192 7.43052 30.6222 7.43052C30.3252 7.43052 30.0845 7.67128 30.0845 7.96827C30.0845 8.26526 30.3252 8.50601 30.6222 8.50601Z" fill="white"/>
<path d="M28.5949 6.47872C28.8919 6.47872 29.1327 6.23796 29.1327 5.94098C29.1327 5.64399 28.8919 5.40323 28.5949 5.40323C28.2979 5.40323 28.0572 5.64399 28.0572 5.94098C28.0572 6.23796 28.2979 6.47872 28.5949 6.47872Z" fill="white"/>
<path d="M7.77214 15.474C6.01005 17.0149 3.53307 17.2974 1.50736 16.3252C1.41459 16.17 1.32654 16.0128 1.24373 15.8535C3.14365 16.5191 5.32346 16.1559 6.91678 14.7617L18.3216 3.35694L19.1057 4.14102" fill="#6666FF" fill-opacity="0.5"/>
</svg>
