<?xml version="1.0" standalone="no"?>
<!DOCTYPE svg PUBLIC "-//W3C//DTD SVG 20010904//EN"
 "http://www.w3.org/TR/2001/REC-SVG-20010904/DTD/svg10.dtd">
<svg version="1.0" xmlns="http://www.w3.org/2000/svg"
 width="700.000000pt" height="700.000000pt" viewBox="0 0 700.000000 700.000000"
 preserveAspectRatio="xMidYMid meet">
<metadata>
Created by potrace 1.11, written by Peter Selinger 2001-2013
</metadata>
<g transform="translate(0.000000,700.000000) scale(0.100000,-0.100000)"
fill="#000000" stroke="none">
<path d="M4800 6289 c-202 -22 -393 -76 -580 -165 -215 -103 -335 -190 -547
-398 l-153 -149 -117 114 c-182 176 -337 291 -513 379 -523 262 -1141 266
-1665 11 -198 -97 -346 -205 -512 -373 -287 -289 -461 -645 -519 -1058 -24
-168 -15 -451 20 -616 65 -310 190 -574 381 -809 106 -130 2287 -2303 2356
-2348 190 -123 358 -172 579 -171 111 1 153 6 235 28 124 32 260 98 362 176
95 71 2244 2222 2328 2329 597 760 525 1838 -167 2507 -277 268 -654 464
-1007 525 -135 23 -360 32 -481 18z m330 -149 c345 -36 677 -181 965 -422 409
-342 635 -851 612 -1378 -16 -368 -125 -676 -344 -973 -105 -142 -2262 -2300
-2368 -2370 -154 -100 -290 -140 -475 -141 -69 0 -134 3 -144 7 -17 7 111 139
832 860 658 659 856 862 871 897 27 59 27 141 0 200 -29 65 -1592 1629 -1663
1665 -63 32 -142 33 -206 4 -35 -15 -247 -222 -950 -924 l-905 -905 -265 265
-265 265 45 0 c138 0 325 39 453 95 207 89 135 23 1417 1301 846 843 1200
1189 1263 1235 331 243 740 359 1127 319z m-3139 -719 c21 -22 29 -39 29 -66
0 -44 -45 -95 -84 -95 -56 0 -107 47 -106 97 1 28 25 64 51 79 40 22 78 17
110 -15z m434 -77 c31 -20 49 -73 36 -106 -13 -35 -58 -68 -93 -68 -45 0 -88
48 -88 97 0 21 6 45 13 54 31 40 90 50 132 23z m-781 -286 c23 -26 27 -37 22
-66 -19 -119 -186 -112 -186 8 0 44 16 69 53 85 42 18 76 10 111 -27z m416
-63 c56 -29 67 -93 24 -144 -75 -89 -214 22 -143 113 36 45 73 55 119 31z
m464 -105 l20 -20 -63 -64 c-70 -71 -89 -74 -109 -18 -14 42 -4 79 31 108 25
21 38 25 66 20 19 -3 44 -15 55 -26z m-1243 -179 c21 -22 29 -39 29 -66 0 -44
-45 -95 -84 -95 -56 0 -107 47 -106 97 1 28 25 64 51 79 40 22 78 17 110 -15z
m430 -71 c29 -16 51 -67 44 -100 -9 -39 -58 -80 -97 -80 -45 0 -88 48 -88 98
0 33 6 45 31 66 32 27 76 34 110 16z m447 -96 c12 -8 22 -21 22 -27 0 -16
-112 -127 -128 -127 -16 0 -42 53 -42 85 0 39 50 85 92 85 18 0 44 -7 56 -16z
m-808 -259 c56 -29 67 -93 24 -144 -73 -87 -214 23 -144 112 37 46 73 56 120
32z m457 -99 l28 -25 -64 -65 c-35 -35 -69 -62 -76 -60 -7 3 -18 16 -25 29
-50 93 59 188 137 121z"/>
</g>
</svg>
